solid OpenSCAD_Model
  facet normal -1 0 0
    outer loop
      vertex 0 0 0
      vertex 0 14.5 2
      vertex 0 14.5 0
    endloop
  endfacet
  facet normal -1 -0 0
    outer loop
      vertex 0 14.5 2
      vertex 0 0 0
      vertex 0 0 2
    endloop
  endfacet
  facet normal 0 0 1
    outer loop
      vertex 35.8 14.5 2
      vertex 37.5 14.5 2
      vertex 37.4692 14.8911 2
    endloop
  endfacet
  facet normal 0 0 1
    outer loop
      vertex 35.7901 14.6251 2
      vertex 37.4692 14.8911 2
      vertex 37.3776 15.2725 2
    endloop
  endfacet
  facet normal 0 0 1
    outer loop
      vertex 37.5 14.5 2
      vertex 35.8 14.5 2
      vertex 37.4692 14.1089 2
    endloop
  endfacet
  facet normal 0 0 1
    outer loop
      vertex 35.7608 14.7472 2
      vertex 37.3776 15.2725 2
      vertex 37.2275 15.635 2
    endloop
  endfacet
  facet normal -0 0 1
    outer loop
      vertex 35.7901 14.3749 2
      vertex 37.4692 14.1089 2
      vertex 35.8 14.5 2
    endloop
  endfacet
  facet normal 0 0 1
    outer loop
      vertex 35.7128 14.8632 2
      vertex 37.2275 15.635 2
      vertex 37.0225 15.9695 2
    endloop
  endfacet
  facet normal 0 0 1
    outer loop
      vertex 37.4692 14.1089 2
      vertex 35.7901 14.3749 2
      vertex 37.3776 13.7275 2
    endloop
  endfacet
  facet normal 0 0 1
    outer loop
      vertex 35.6472 14.9702 2
      vertex 37.0225 15.9695 2
      vertex 36.7678 16.2678 2
    endloop
  endfacet
  facet normal -0 0 1
    outer loop
      vertex 35.7608 14.2528 2
      vertex 37.3776 13.7275 2
      vertex 35.7901 14.3749 2
    endloop
  endfacet
  facet normal 0 0 1
    outer loop
      vertex 35.5657 15.0657 2
      vertex 36.7678 16.2678 2
      vertex 36.4695 16.5225 2
    endloop
  endfacet
  facet normal 0 0 1
    outer loop
      vertex 37.3776 13.7275 2
      vertex 35.7608 14.2528 2
      vertex 37.2275 13.365 2
    endloop
  endfacet
  facet normal 0 0 1
    outer loop
      vertex 35.4702 15.1472 2
      vertex 36.4695 16.5225 2
      vertex 36.135 16.7275 2
    endloop
  endfacet
  facet normal -0 0 1
    outer loop
      vertex 35.7128 14.1368 2
      vertex 37.2275 13.365 2
      vertex 35.7608 14.2528 2
    endloop
  endfacet
  facet normal 0 0 1
    outer loop
      vertex 37.2275 13.365 2
      vertex 35.7128 14.1368 2
      vertex 37.0225 13.0305 2
    endloop
  endfacet
  facet normal 0 0 1
    outer loop
      vertex 37.4692 14.8911 2
      vertex 35.7901 14.6251 2
      vertex 35.8 14.5 2
    endloop
  endfacet
  facet normal 0 0 1
    outer loop
      vertex 35.3632 15.2128 2
      vertex 36.135 16.7275 2
      vertex 35.7725 16.8776 2
    endloop
  endfacet
  facet normal 0 0 1
    outer loop
      vertex 37.3776 15.2725 2
      vertex 35.7608 14.7472 2
      vertex 35.7901 14.6251 2
    endloop
  endfacet
  facet normal 0 0 1
    outer loop
      vertex 37.2275 15.635 2
      vertex 35.7128 14.8632 2
      vertex 35.7608 14.7472 2
    endloop
  endfacet
  facet normal 0 0 1
    outer loop
      vertex 37.0225 15.9695 2
      vertex 35.6472 14.9702 2
      vertex 35.7128 14.8632 2
    endloop
  endfacet
  facet normal 0 0 1
    outer loop
      vertex 36.7678 16.2678 2
      vertex 35.5657 15.0657 2
      vertex 35.6472 14.9702 2
    endloop
  endfacet
  facet normal 0 0 1
    outer loop
      vertex 36.4695 16.5225 2
      vertex 35.4702 15.1472 2
      vertex 35.5657 15.0657 2
    endloop
  endfacet
  facet normal 0 0 1
    outer loop
      vertex 35.2472 15.2608 2
      vertex 35.7725 16.8776 2
      vertex 35.3911 16.9692 2
    endloop
  endfacet
  facet normal 0 0 1
    outer loop
      vertex 36.135 16.7275 2
      vertex 35.3632 15.2128 2
      vertex 35.4702 15.1472 2
    endloop
  endfacet
  facet normal 0 0 1
    outer loop
      vertex 35.7725 16.8776 2
      vertex 35.2472 15.2608 2
      vertex 35.3632 15.2128 2
    endloop
  endfacet
  facet normal 0 0 1
    outer loop
      vertex 35.3911 16.9692 2
      vertex 35.1251 15.2902 2
      vertex 35.2472 15.2608 2
    endloop
  endfacet
  facet normal 0 0 1
    outer loop
      vertex 35 17 2
      vertex 35.1251 15.2902 2
      vertex 35.3911 16.9692 2
    endloop
  endfacet
  facet normal 0 0 1
    outer loop
      vertex 35 17 2
      vertex 35 15.3 2
      vertex 35.1251 15.2902 2
    endloop
  endfacet
  facet normal 0 0 1
    outer loop
      vertex 35 17 2
      vertex 34.8749 15.2902 2
      vertex 35 15.3 2
    endloop
  endfacet
  facet normal 0 0 1
    outer loop
      vertex 35 17 2
      vertex 34.7528 15.2608 2
      vertex 34.8749 15.2902 2
    endloop
  endfacet
  facet normal 0 0 1
    outer loop
      vertex 35 17 2
      vertex 34.6368 15.2128 2
      vertex 34.7528 15.2608 2
    endloop
  endfacet
  facet normal 0 0 1
    outer loop
      vertex 35 17 2
      vertex 34.5298 15.1472 2
      vertex 34.6368 15.2128 2
    endloop
  endfacet
  facet normal 0 0 1
    outer loop
      vertex 35 17 2
      vertex 34.4343 15.0657 2
      vertex 34.5298 15.1472 2
    endloop
  endfacet
  facet normal 0 0 1
    outer loop
      vertex 35 17 2
      vertex 34.3528 14.9702 2
      vertex 34.4343 15.0657 2
    endloop
  endfacet
  facet normal 0 0 1
    outer loop
      vertex 35 17 2
      vertex 34.2872 14.8632 2
      vertex 34.3528 14.9702 2
    endloop
  endfacet
  facet normal 0 0 1
    outer loop
      vertex 10 12 2
      vertex 34.2872 14.8632 2
      vertex 35 17 2
    endloop
  endfacet
  facet normal 0 0 1
    outer loop
      vertex 34.2098 14.6251 2
      vertex 10 12 2
      vertex 34.2 14.5 2
    endloop
  endfacet
  facet normal 0 0 1
    outer loop
      vertex 34.2392 14.7472 2
      vertex 10 12 2
      vertex 34.2098 14.6251 2
    endloop
  endfacet
  facet normal 0 0 1
    outer loop
      vertex 34.2872 14.8632 2
      vertex 10 12 2
      vertex 34.2392 14.7472 2
    endloop
  endfacet
  facet normal 0 0 1
    outer loop
      vertex 8.8 6.5 2
      vertex 10 12 2
      vertex 8.8 9.7 2
    endloop
  endfacet
  facet normal 0 0 1
    outer loop
      vertex 10 12 2
      vertex 7 9.7 2
      vertex 8.8 9.7 2
    endloop
  endfacet
  facet normal 0 0 1
    outer loop
      vertex 7 9.7 2
      vertex 5.8 9.7 2
      vertex 7 6.5 2
    endloop
  endfacet
  facet normal 0 0 1
    outer loop
      vertex 10 12 2
      vertex 5.8 9.7 2
      vertex 7 9.7 2
    endloop
  endfacet
  facet normal 0 0 1
    outer loop
      vertex 2.5 17 2
      vertex 5.8 9.7 2
      vertex 10 12 2
    endloop
  endfacet
  facet normal 0 0 1
    outer loop
      vertex 2.8 6.5 2
      vertex 4 6.5 2
      vertex 4 9.7 2
    endloop
  endfacet
  facet normal 0 0 1
    outer loop
      vertex 4 6.5 2
      vertex 3.29015 0.125147 2
      vertex 3.96946 -2.02254 2
    endloop
  endfacet
  facet normal -0 -0 1
    outer loop
      vertex 3.3 0 2
      vertex 3.96946 -2.02254 2
      vertex 3.29015 0.125147 2
    endloop
  endfacet
  facet normal -0 0 1
    outer loop
      vertex 3.29015 -0.125147 2
      vertex 3.96946 -2.02254 2
      vertex 3.3 0 2
    endloop
  endfacet
  facet normal 0 0 1
    outer loop
      vertex 4 6.5 2
      vertex 3.26085 0.247213 2
      vertex 3.29015 0.125147 2
    endloop
  endfacet
  facet normal 0 0 1
    outer loop
      vertex 2.74721 0.760845 2
      vertex 4 6.5 2
      vertex 2.8 6.5 2
    endloop
  endfacet
  facet normal 0 0 1
    outer loop
      vertex 4 6.5 2
      vertex 3.2128 0.363192 2
      vertex 3.26085 0.247213 2
    endloop
  endfacet
  facet normal 0 0 1
    outer loop
      vertex 4 6.5 2
      vertex 3.14721 0.470228 2
      vertex 3.2128 0.363192 2
    endloop
  endfacet
  facet normal 0 0 1
    outer loop
      vertex 4 6.5 2
      vertex 3.06569 0.565685 2
      vertex 3.14721 0.470228 2
    endloop
  endfacet
  facet normal 0 0 1
    outer loop
      vertex 4 6.5 2
      vertex 2.97023 0.647213 2
      vertex 3.06569 0.565685 2
    endloop
  endfacet
  facet normal 0 0 1
    outer loop
      vertex 2.8 6.5 2
      vertex 4 9.7 2
      vertex 2.8 9.7 2
    endloop
  endfacet
  facet normal 0 0 1
    outer loop
      vertex 5.8 9.7 2
      vertex 2.5 17 2
      vertex 4 9.7 2
    endloop
  endfacet
  facet normal -0 0 1
    outer loop
      vertex 2.5 17 2
      vertex 10 12 2
      vertex 35 17 2
    endloop
  endfacet
  facet normal -0 0 1
    outer loop
      vertex 0 14.5 2
      vertex 4 9.7 2
      vertex 2.5 17 2
    endloop
  endfacet
  facet normal 0 0 1
    outer loop
      vertex 0 14.5 2
      vertex 2.5 17 2
      vertex 2.10891 16.9692 2
    endloop
  endfacet
  facet normal 0 0 1
    outer loop
      vertex 0 14.5 2
      vertex 2.10891 16.9692 2
      vertex 1.72746 16.8776 2
    endloop
  endfacet
  facet normal 0 0 1
    outer loop
      vertex 0 14.5 2
      vertex 1.72746 16.8776 2
      vertex 1.36502 16.7275 2
    endloop
  endfacet
  facet normal 0 0 1
    outer loop
      vertex 0 14.5 2
      vertex 1.36502 16.7275 2
      vertex 1.03054 16.5225 2
    endloop
  endfacet
  facet normal 0 0 1
    outer loop
      vertex 4 9.7 2
      vertex 0 14.5 2
      vertex 2.8 9.7 2
    endloop
  endfacet
  facet normal 0 0 1
    outer loop
      vertex 2.8 9.7 2
      vertex 0 14.5 2
      vertex 1 9.7 2
    endloop
  endfacet
  facet normal 0 0 1
    outer loop
      vertex 0 14.5 2
      vertex 1.03054 16.5225 2
      vertex 0.732232 16.2678 2
    endloop
  endfacet
  facet normal -0 0 1
    outer loop
      vertex 35.6472 14.0298 2
      vertex 37.0225 13.0305 2
      vertex 35.7128 14.1368 2
    endloop
  endfacet
  facet normal 0 0 1
    outer loop
      vertex 37.0225 13.0305 2
      vertex 35.6472 14.0298 2
      vertex 36.7678 12.7322 2
    endloop
  endfacet
  facet normal -0 0 1
    outer loop
      vertex 35.5657 13.9343 2
      vertex 36.7678 12.7322 2
      vertex 35.6472 14.0298 2
    endloop
  endfacet
  facet normal 0 0 1
    outer loop
      vertex 36.7678 12.7322 2
      vertex 35.5657 13.9343 2
      vertex 36.4695 12.4775 2
    endloop
  endfacet
  facet normal -0 0 1
    outer loop
      vertex 35.4702 13.8528 2
      vertex 36.4695 12.4775 2
      vertex 35.5657 13.9343 2
    endloop
  endfacet
  facet normal 0 0 1
    outer loop
      vertex 36.4695 12.4775 2
      vertex 35.4702 13.8528 2
      vertex 36.135 12.2725 2
    endloop
  endfacet
  facet normal -0 0 1
    outer loop
      vertex 35.3632 13.7872 2
      vertex 36.135 12.2725 2
      vertex 35.4702 13.8528 2
    endloop
  endfacet
  facet normal 0 0 1
    outer loop
      vertex 36.135 12.2725 2
      vertex 35.3632 13.7872 2
      vertex 35.7725 12.1224 2
    endloop
  endfacet
  facet normal -0 0 1
    outer loop
      vertex 35.2472 13.7392 2
      vertex 35.7725 12.1224 2
      vertex 35.3632 13.7872 2
    endloop
  endfacet
  facet normal 0 0 1
    outer loop
      vertex 35.7725 12.1224 2
      vertex 35.2472 13.7392 2
      vertex 35.3911 12.0308 2
    endloop
  endfacet
  facet normal -0 0 1
    outer loop
      vertex 35.1251 13.7098 2
      vertex 35.3911 12.0308 2
      vertex 35.2472 13.7392 2
    endloop
  endfacet
  facet normal -0 0 1
    outer loop
      vertex 35 13.7 2
      vertex 35.3911 12.0308 2
      vertex 35.1251 13.7098 2
    endloop
  endfacet
  facet normal 0 0 1
    outer loop
      vertex 35 13.7 2
      vertex 35 12 2
      vertex 35.3911 12.0308 2
    endloop
  endfacet
  facet normal 0 0 1
    outer loop
      vertex 34.8749 13.7098 2
      vertex 35 12 2
      vertex 35 13.7 2
    endloop
  endfacet
  facet normal 0 0 1
    outer loop
      vertex 34.7528 13.7392 2
      vertex 35 12 2
      vertex 34.8749 13.7098 2
    endloop
  endfacet
  facet normal 0 0 1
    outer loop
      vertex 34.6368 13.7872 2
      vertex 35 12 2
      vertex 34.7528 13.7392 2
    endloop
  endfacet
  facet normal 0 0 1
    outer loop
      vertex 34.5298 13.8528 2
      vertex 35 12 2
      vertex 34.6368 13.7872 2
    endloop
  endfacet
  facet normal 0 0 1
    outer loop
      vertex 34.4343 13.9343 2
      vertex 35 12 2
      vertex 34.5298 13.8528 2
    endloop
  endfacet
  facet normal 0 0 1
    outer loop
      vertex 34.3528 14.0298 2
      vertex 35 12 2
      vertex 34.4343 13.9343 2
    endloop
  endfacet
  facet normal 0 0 1
    outer loop
      vertex 34.2872 14.1368 2
      vertex 35 12 2
      vertex 34.3528 14.0298 2
    endloop
  endfacet
  facet normal 0 0 1
    outer loop
      vertex 10 12 2
      vertex 34.2872 14.1368 2
      vertex 34.2392 14.2528 2
    endloop
  endfacet
  facet normal 0 0 1
    outer loop
      vertex 34.2872 14.1368 2
      vertex 10 12 2
      vertex 35 12 2
    endloop
  endfacet
  facet normal 0 0 1
    outer loop
      vertex 34.2098 14.3749 2
      vertex 10 12 2
      vertex 34.2392 14.2528 2
    endloop
  endfacet
  facet normal 0 0 1
    outer loop
      vertex 10 12 2
      vertex 34.2098 14.3749 2
      vertex 34.2 14.5 2
    endloop
  endfacet
  facet normal 0 0 1
    outer loop
      vertex 10 12 2
      vertex 8.8 6.5 2
      vertex 10 4 2
    endloop
  endfacet
  facet normal -0 0 1
    outer loop
      vertex 7 6.5 2
      vertex 10 4 2
      vertex 8.8 6.5 2
    endloop
  endfacet
  facet normal 0 0 1
    outer loop
      vertex 5.8 6.5 2
      vertex 7 6.5 2
      vertex 5.8 9.7 2
    endloop
  endfacet
  facet normal 0 0 1
    outer loop
      vertex 5 4 2
      vertex 7 6.5 2
      vertex 5.8 6.5 2
    endloop
  endfacet
  facet normal 0 0 1
    outer loop
      vertex 7 6.5 2
      vertex 5 4 2
      vertex 10 4 2
    endloop
  endfacet
  facet normal 0 0 1
    outer loop
      vertex 3.96946 -2.02254 2
      vertex 5 0 2
      vertex 5 4 2
    endloop
  endfacet
  facet normal 0 0 1
    outer loop
      vertex 5 0 2
      vertex 3.96946 -2.02254 2
      vertex 4.96922 -0.391086 2
    endloop
  endfacet
  facet normal 0 0 1
    outer loop
      vertex 4.96922 -0.391086 2
      vertex 3.96946 -2.02254 2
      vertex 4.87764 -0.772542 2
    endloop
  endfacet
  facet normal 0 0 1
    outer loop
      vertex 4.87764 -0.772542 2
      vertex 3.96946 -2.02254 2
      vertex 4.72752 -1.13498 2
    endloop
  endfacet
  facet normal 0 0 1
    outer loop
      vertex 4.72752 -1.13498 2
      vertex 3.96946 -2.02254 2
      vertex 4.52254 -1.46946 2
    endloop
  endfacet
  facet normal -0 0 1
    outer loop
      vertex 4 6.5 2
      vertex 5 4 2
      vertex 5.8 6.5 2
    endloop
  endfacet
  facet normal 0 0 1
    outer loop
      vertex 3.96946 -2.02254 2
      vertex 5 4 2
      vertex 4 6.5 2
    endloop
  endfacet
  facet normal 0 0 1
    outer loop
      vertex 4.52254 -1.46946 2
      vertex 3.96946 -2.02254 2
      vertex 4.26777 -1.76777 2
    endloop
  endfacet
  facet normal -0 0 1
    outer loop
      vertex 3.26085 -0.247213 2
      vertex 3.96946 -2.02254 2
      vertex 3.29015 -0.125147 2
    endloop
  endfacet
  facet normal -0 0 1
    outer loop
      vertex 3.2128 -0.363192 2
      vertex 3.96946 -2.02254 2
      vertex 3.26085 -0.247213 2
    endloop
  endfacet
  facet normal -0 0 1
    outer loop
      vertex 3.14721 -0.470228 2
      vertex 3.96946 -2.02254 2
      vertex 3.2128 -0.363192 2
    endloop
  endfacet
  facet normal -0 0 1
    outer loop
      vertex 3.06569 -0.565685 2
      vertex 3.96946 -2.02254 2
      vertex 3.14721 -0.470228 2
    endloop
  endfacet
  facet normal -0 0 1
    outer loop
      vertex 2.97023 -0.647213 2
      vertex 3.96946 -2.02254 2
      vertex 3.06569 -0.565685 2
    endloop
  endfacet
  facet normal 0 0 1
    outer loop
      vertex 3.96946 -2.02254 2
      vertex 2.97023 -0.647213 2
      vertex 3.63498 -2.22752 2
    endloop
  endfacet
  facet normal -0 0 1
    outer loop
      vertex 2.86319 -0.712805 2
      vertex 3.63498 -2.22752 2
      vertex 2.97023 -0.647213 2
    endloop
  endfacet
  facet normal 0 0 1
    outer loop
      vertex 3.63498 -2.22752 2
      vertex 2.86319 -0.712805 2
      vertex 3.27254 -2.37764 2
    endloop
  endfacet
  facet normal -0 0 1
    outer loop
      vertex 2.74721 -0.760845 2
      vertex 3.27254 -2.37764 2
      vertex 2.86319 -0.712805 2
    endloop
  endfacet
  facet normal 0 0 1
    outer loop
      vertex 3.27254 -2.37764 2
      vertex 2.74721 -0.760845 2
      vertex 2.89109 -2.46922 2
    endloop
  endfacet
  facet normal -0 0 1
    outer loop
      vertex 2.62515 -0.790151 2
      vertex 2.89109 -2.46922 2
      vertex 2.74721 -0.760845 2
    endloop
  endfacet
  facet normal -0 0 1
    outer loop
      vertex 2.5 -0.799999 2
      vertex 2.89109 -2.46922 2
      vertex 2.62515 -0.790151 2
    endloop
  endfacet
  facet normal 0 0 1
    outer loop
      vertex 2.5 -0.799999 2
      vertex 2.5 -2.5 2
      vertex 2.89109 -2.46922 2
    endloop
  endfacet
  facet normal 0 0 1
    outer loop
      vertex 2.37485 -0.790151 2
      vertex 2.5 -2.5 2
      vertex 2.5 -0.799999 2
    endloop
  endfacet
  facet normal 0 0 1
    outer loop
      vertex 2.10891 -2.46922 2
      vertex 2.37485 -0.790151 2
      vertex 2.25279 -0.760845 2
    endloop
  endfacet
  facet normal 0 0 1
    outer loop
      vertex 1.72746 -2.37764 2
      vertex 2.25279 -0.760845 2
      vertex 2.13681 -0.712805 2
    endloop
  endfacet
  facet normal 0 0 1
    outer loop
      vertex 2.37485 -0.790151 2
      vertex 2.10891 -2.46922 2
      vertex 2.5 -2.5 2
    endloop
  endfacet
  facet normal 0 0 1
    outer loop
      vertex 1.36502 -2.22752 2
      vertex 2.13681 -0.712805 2
      vertex 2.02977 -0.647213 2
    endloop
  endfacet
  facet normal 0 0 1
    outer loop
      vertex 1.03054 -2.02254 2
      vertex 2.02977 -0.647213 2
      vertex 1.93431 -0.565685 2
    endloop
  endfacet
  facet normal 0 0 1
    outer loop
      vertex 0.732232 -1.76777 2
      vertex 1.93431 -0.565685 2
      vertex 1.85279 -0.470228 2
    endloop
  endfacet
  facet normal 0 0 1
    outer loop
      vertex 0.477457 -1.46946 2
      vertex 1.85279 -0.470228 2
      vertex 1.78719 -0.363192 2
    endloop
  endfacet
  facet normal 0 0 1
    outer loop
      vertex 0.272483 -1.13498 2
      vertex 1.78719 -0.363192 2
      vertex 1.73915 -0.247213 2
    endloop
  endfacet
  facet normal 0 0 1
    outer loop
      vertex 2.25279 -0.760845 2
      vertex 1.72746 -2.37764 2
      vertex 2.10891 -2.46922 2
    endloop
  endfacet
  facet normal 0 0 1
    outer loop
      vertex 0.122358 -0.772542 2
      vertex 1.73915 -0.247213 2
      vertex 1.70985 -0.125147 2
    endloop
  endfacet
  facet normal 0 0 1
    outer loop
      vertex 0.0307789 -0.391086 2
      vertex 1.70985 -0.125147 2
      vertex 1.7 0 2
    endloop
  endfacet
  facet normal 0 0 1
    outer loop
      vertex 2.13681 -0.712805 2
      vertex 1.36502 -2.22752 2
      vertex 1.72746 -2.37764 2
    endloop
  endfacet
  facet normal 0 0 1
    outer loop
      vertex 4 6.5 2
      vertex 2.86319 0.712805 2
      vertex 2.97023 0.647213 2
    endloop
  endfacet
  facet normal 0 0 1
    outer loop
      vertex 4 6.5 2
      vertex 2.74721 0.760845 2
      vertex 2.86319 0.712805 2
    endloop
  endfacet
  facet normal 0 0 1
    outer loop
      vertex 2.8 6.5 2
      vertex 2.62515 0.790151 2
      vertex 2.74721 0.760845 2
    endloop
  endfacet
  facet normal 0 0 1
    outer loop
      vertex 2.8 6.5 2
      vertex 2.5 0.799999 2
      vertex 2.62515 0.790151 2
    endloop
  endfacet
  facet normal 0 0 1
    outer loop
      vertex 2.8 6.5 2
      vertex 2.37485 0.790151 2
      vertex 2.5 0.799999 2
    endloop
  endfacet
  facet normal -0 0 1
    outer loop
      vertex 1 6.5 2
      vertex 2.37485 0.790151 2
      vertex 2.8 6.5 2
    endloop
  endfacet
  facet normal 0 0 1
    outer loop
      vertex 2.37485 0.790151 2
      vertex 1 6.5 2
      vertex 2.25279 0.760845 2
    endloop
  endfacet
  facet normal 0 0 1
    outer loop
      vertex 2.25279 0.760845 2
      vertex 1 6.5 2
      vertex 2.13681 0.712805 2
    endloop
  endfacet
  facet normal 0 0 1
    outer loop
      vertex 2.13681 0.712805 2
      vertex 1 6.5 2
      vertex 2.02977 0.647213 2
    endloop
  endfacet
  facet normal 0 0 1
    outer loop
      vertex 0 0 2
      vertex 2.02977 0.647213 2
      vertex 1 6.5 2
    endloop
  endfacet
  facet normal 0 0 1
    outer loop
      vertex 2.02977 0.647213 2
      vertex 0 0 2
      vertex 1.93431 0.565685 2
    endloop
  endfacet
  facet normal 0 0 1
    outer loop
      vertex 1.93431 0.565685 2
      vertex 0 0 2
      vertex 1.85279 0.470228 2
    endloop
  endfacet
  facet normal 0 0 1
    outer loop
      vertex 1.85279 0.470228 2
      vertex 0 0 2
      vertex 1.78719 0.363192 2
    endloop
  endfacet
  facet normal 0 0 1
    outer loop
      vertex 0 0 2
      vertex 1.7 0 2
      vertex 1.70985 0.125147 2
    endloop
  endfacet
  facet normal 0 0 1
    outer loop
      vertex 2.02977 -0.647213 2
      vertex 1.03054 -2.02254 2
      vertex 1.36502 -2.22752 2
    endloop
  endfacet
  facet normal 0 0 1
    outer loop
      vertex 1.78719 0.363192 2
      vertex 0 0 2
      vertex 1.73915 0.247213 2
    endloop
  endfacet
  facet normal 0 0 1
    outer loop
      vertex 1.73915 0.247213 2
      vertex 0 0 2
      vertex 1.70985 0.125147 2
    endloop
  endfacet
  facet normal 0 0 1
    outer loop
      vertex 1 9.7 2
      vertex 0 14.5 2
      vertex 1 6.5 2
    endloop
  endfacet
  facet normal 0 0 1
    outer loop
      vertex 0 0 2
      vertex 1 6.5 2
      vertex 0 14.5 2
    endloop
  endfacet
  facet normal 0 0 1
    outer loop
      vertex 0 14.5 2
      vertex 0.732232 16.2678 2
      vertex 0.477457 15.9695 2
    endloop
  endfacet
  facet normal 0 0 1
    outer loop
      vertex 1.7 0 2
      vertex 0 0 2
      vertex 0.0307789 -0.391086 2
    endloop
  endfacet
  facet normal 0 0 1
    outer loop
      vertex 0 14.5 2
      vertex 0.477457 15.9695 2
      vertex 0.272483 15.635 2
    endloop
  endfacet
  facet normal 0 0 1
    outer loop
      vertex 1.93431 -0.565685 2
      vertex 0.732232 -1.76777 2
      vertex 1.03054 -2.02254 2
    endloop
  endfacet
  facet normal 0 0 1
    outer loop
      vertex 0 14.5 2
      vertex 0.272483 15.635 2
      vertex 0.122358 15.2725 2
    endloop
  endfacet
  facet normal 0 0 1
    outer loop
      vertex 1.85279 -0.470228 2
      vertex 0.477457 -1.46946 2
      vertex 0.732232 -1.76777 2
    endloop
  endfacet
  facet normal 0 0 1
    outer loop
      vertex 0 14.5 2
      vertex 0.122358 15.2725 2
      vertex 0.0307789 14.8911 2
    endloop
  endfacet
  facet normal 0 0 1
    outer loop
      vertex 1.78719 -0.363192 2
      vertex 0.272483 -1.13498 2
      vertex 0.477457 -1.46946 2
    endloop
  endfacet
  facet normal 0 0 1
    outer loop
      vertex 1.73915 -0.247213 2
      vertex 0.122358 -0.772542 2
      vertex 0.272483 -1.13498 2
    endloop
  endfacet
  facet normal 0 0 1
    outer loop
      vertex 1.70985 -0.125147 2
      vertex 0.0307789 -0.391086 2
      vertex 0.122358 -0.772542 2
    endloop
  endfacet
  facet normal 1 -0 0
    outer loop
      vertex 5 0 2
      vertex 5 4 0
      vertex 5 4 2
    endloop
  endfacet
  facet normal 1 0 0
    outer loop
      vertex 5 4 0
      vertex 5 0 2
      vertex 5 0 0
    endloop
  endfacet
  facet normal 0 0 -1
    outer loop
      vertex 3.29015 0.125147 0
      vertex 5 0 0
      vertex 4.96922 -0.391086 0
    endloop
  endfacet
  facet normal 0 0 -1
    outer loop
      vertex 10 4 0
      vertex 8.8 6.5 0
      vertex 10 12 0
    endloop
  endfacet
  facet normal 0 0 -1
    outer loop
      vertex 10 4 0
      vertex 7 6.5 0
      vertex 8.8 6.5 0
    endloop
  endfacet
  facet normal 0 0 -1
    outer loop
      vertex 7 6.5 0
      vertex 5.8 6.5 0
      vertex 7 9.7 0
    endloop
  endfacet
  facet normal 0 0 -1
    outer loop
      vertex 5 4 0
      vertex 7 6.5 0
      vertex 10 4 0
    endloop
  endfacet
  facet normal -0 0 -1
    outer loop
      vertex 7 6.5 0
      vertex 5 4 0
      vertex 5.8 6.5 0
    endloop
  endfacet
  facet normal 0 0 -1
    outer loop
      vertex 3.29015 0.125147 0
      vertex 4.96922 -0.391086 0
      vertex 4.87764 -0.772542 0
    endloop
  endfacet
  facet normal 0 0 -1
    outer loop
      vertex 3.29015 0.125147 0
      vertex 4.87764 -0.772542 0
      vertex 4.72752 -1.13498 0
    endloop
  endfacet
  facet normal 0 0 -1
    outer loop
      vertex 3.29015 0.125147 0
      vertex 4.72752 -1.13498 0
      vertex 4.52254 -1.46946 0
    endloop
  endfacet
  facet normal 0 0 -1
    outer loop
      vertex 3.29015 0.125147 0
      vertex 4.52254 -1.46946 0
      vertex 4.26777 -1.76777 0
    endloop
  endfacet
  facet normal 0 0 -1
    outer loop
      vertex 5 4 0
      vertex 4 6.5 0
      vertex 5.8 6.5 0
    endloop
  endfacet
  facet normal 0 0 -1
    outer loop
      vertex 5 0 0
      vertex 3.29015 0.125147 0
      vertex 3.26085 0.247213 0
    endloop
  endfacet
  facet normal 0 0 -1
    outer loop
      vertex 5 0 0
      vertex 3.26085 0.247213 0
      vertex 3.2128 0.363192 0
    endloop
  endfacet
  facet normal 0 0 -1
    outer loop
      vertex 3.29015 0.125147 0
      vertex 4.26777 -1.76777 0
      vertex 3.96946 -2.02254 0
    endloop
  endfacet
  facet normal 0 0 -1
    outer loop
      vertex 5 4 0
      vertex 2.8 6.5 0
      vertex 4 6.5 0
    endloop
  endfacet
  facet normal 0 0 -1
    outer loop
      vertex 2.5 0.799999 0
      vertex 5 4 0
      vertex 2.62515 0.790151 0
    endloop
  endfacet
  facet normal 0 0 -1
    outer loop
      vertex 2.37485 0.790151 0
      vertex 5 4 0
      vertex 2.5 0.799999 0
    endloop
  endfacet
  facet normal -0 0 -1
    outer loop
      vertex 5 4 0
      vertex 2.37485 0.790151 0
      vertex 2.8 6.5 0
    endloop
  endfacet
  facet normal 0 0 -1
    outer loop
      vertex 1 6.5 0
      vertex 2.37485 0.790151 0
      vertex 2.25279 0.760845 0
    endloop
  endfacet
  facet normal 0 0 -1
    outer loop
      vertex 1 6.5 0
      vertex 2.25279 0.760845 0
      vertex 2.13681 0.712805 0
    endloop
  endfacet
  facet normal 0 0 -1
    outer loop
      vertex 1 6.5 0
      vertex 2.13681 0.712805 0
      vertex 2.02977 0.647213 0
    endloop
  endfacet
  facet normal 0 0 -1
    outer loop
      vertex 0 0 0
      vertex 2.02977 0.647213 0
      vertex 1.93431 0.565685 0
    endloop
  endfacet
  facet normal 0 0 -1
    outer loop
      vertex 0 0 0
      vertex 1.93431 0.565685 0
      vertex 1.85279 0.470228 0
    endloop
  endfacet
  facet normal 0 0 -1
    outer loop
      vertex 0 0 0
      vertex 1.85279 0.470228 0
      vertex 1.78719 0.363192 0
    endloop
  endfacet
  facet normal 0 0 -1
    outer loop
      vertex 0 0 0
      vertex 1.78719 0.363192 0
      vertex 1.73915 0.247213 0
    endloop
  endfacet
  facet normal 0 0 -1
    outer loop
      vertex 0 0 0
      vertex 1.73915 0.247213 0
      vertex 1.70985 0.125147 0
    endloop
  endfacet
  facet normal 0 0 -1
    outer loop
      vertex 0.272483 -1.13498 0
      vertex 1.78719 -0.363192 0
      vertex 0.477457 -1.46946 0
    endloop
  endfacet
  facet normal -0 0 -1
    outer loop
      vertex 1.78719 -0.363192 0
      vertex 0.272483 -1.13498 0
      vertex 1.73915 -0.247213 0
    endloop
  endfacet
  facet normal 0 0 -1
    outer loop
      vertex 0.122358 -0.772542 0
      vertex 1.73915 -0.247213 0
      vertex 0.272483 -1.13498 0
    endloop
  endfacet
  facet normal -0 0 -1
    outer loop
      vertex 2.02977 0.647213 0
      vertex 0 0 0
      vertex 1 6.5 0
    endloop
  endfacet
  facet normal 0 0 -1
    outer loop
      vertex 2.37485 0.790151 0
      vertex 1 6.5 0
      vertex 2.8 6.5 0
    endloop
  endfacet
  facet normal -0 0 -1
    outer loop
      vertex 1.73915 -0.247213 0
      vertex 0.122358 -0.772542 0
      vertex 1.70985 -0.125147 0
    endloop
  endfacet
  facet normal 0 0 -1
    outer loop
      vertex 3.96946 -2.02254 0
      vertex 3.29015 -0.125147 0
      vertex 3.3 0 0
    endloop
  endfacet
  facet normal 0 0 -1
    outer loop
      vertex 2.86319 -0.712805 0
      vertex 3.63498 -2.22752 0
      vertex 3.27254 -2.37764 0
    endloop
  endfacet
  facet normal 0 0 -1
    outer loop
      vertex 3.96946 -2.02254 0
      vertex 3.26085 -0.247213 0
      vertex 3.29015 -0.125147 0
    endloop
  endfacet
  facet normal 0 0 -1
    outer loop
      vertex 3.96946 -2.02254 0
      vertex 3.2128 -0.363192 0
      vertex 3.26085 -0.247213 0
    endloop
  endfacet
  facet normal 0 0 -1
    outer loop
      vertex 3.96946 -2.02254 0
      vertex 3.14721 -0.470228 0
      vertex 3.2128 -0.363192 0
    endloop
  endfacet
  facet normal 0 0 -1
    outer loop
      vertex 3.96946 -2.02254 0
      vertex 3.06569 -0.565685 0
      vertex 3.14721 -0.470228 0
    endloop
  endfacet
  facet normal 0 0 -1
    outer loop
      vertex 3.96946 -2.02254 0
      vertex 2.97023 -0.647213 0
      vertex 3.06569 -0.565685 0
    endloop
  endfacet
  facet normal 0 0 -1
    outer loop
      vertex 2.74721 -0.760845 0
      vertex 3.27254 -2.37764 0
      vertex 2.89109 -2.46922 0
    endloop
  endfacet
  facet normal 0 0 -1
    outer loop
      vertex 3.63498 -2.22752 0
      vertex 2.86319 -0.712805 0
      vertex 2.97023 -0.647213 0
    endloop
  endfacet
  facet normal 0 0 -1
    outer loop
      vertex 3.27254 -2.37764 0
      vertex 2.74721 -0.760845 0
      vertex 2.86319 -0.712805 0
    endloop
  endfacet
  facet normal 0 0 -1
    outer loop
      vertex 2.89109 -2.46922 0
      vertex 2.62515 -0.790151 0
      vertex 2.74721 -0.760845 0
    endloop
  endfacet
  facet normal 0 0 -1
    outer loop
      vertex 2.89109 -2.46922 0
      vertex 2.5 -0.799999 0
      vertex 2.62515 -0.790151 0
    endloop
  endfacet
  facet normal 0 0 -1
    outer loop
      vertex 2.5 -2.5 0
      vertex 2.5 -0.799999 0
      vertex 2.89109 -2.46922 0
    endloop
  endfacet
  facet normal 0 0 -1
    outer loop
      vertex 2.5 -2.5 0
      vertex 2.37485 -0.790151 0
      vertex 2.5 -0.799999 0
    endloop
  endfacet
  facet normal 0 0 -1
    outer loop
      vertex 2.10891 -2.46922 0
      vertex 2.37485 -0.790151 0
      vertex 2.5 -2.5 0
    endloop
  endfacet
  facet normal -0 0 -1
    outer loop
      vertex 2.37485 -0.790151 0
      vertex 2.10891 -2.46922 0
      vertex 2.25279 -0.760845 0
    endloop
  endfacet
  facet normal 0 0 -1
    outer loop
      vertex 1.72746 -2.37764 0
      vertex 2.25279 -0.760845 0
      vertex 2.10891 -2.46922 0
    endloop
  endfacet
  facet normal -0 0 -1
    outer loop
      vertex 2.25279 -0.760845 0
      vertex 1.72746 -2.37764 0
      vertex 2.13681 -0.712805 0
    endloop
  endfacet
  facet normal 0 0 -1
    outer loop
      vertex 1.36502 -2.22752 0
      vertex 2.13681 -0.712805 0
      vertex 1.72746 -2.37764 0
    endloop
  endfacet
  facet normal -0 0 -1
    outer loop
      vertex 2.13681 -0.712805 0
      vertex 1.36502 -2.22752 0
      vertex 2.02977 -0.647213 0
    endloop
  endfacet
  facet normal 0 0 -1
    outer loop
      vertex 1.03054 -2.02254 0
      vertex 2.02977 -0.647213 0
      vertex 1.36502 -2.22752 0
    endloop
  endfacet
  facet normal -0 0 -1
    outer loop
      vertex 2.02977 -0.647213 0
      vertex 1.03054 -2.02254 0
      vertex 1.93431 -0.565685 0
    endloop
  endfacet
  facet normal 0 0 -1
    outer loop
      vertex 0.732232 -1.76777 0
      vertex 1.93431 -0.565685 0
      vertex 1.03054 -2.02254 0
    endloop
  endfacet
  facet normal -0 0 -1
    outer loop
      vertex 1.93431 -0.565685 0
      vertex 0.732232 -1.76777 0
      vertex 1.85279 -0.470228 0
    endloop
  endfacet
  facet normal 0 0 -1
    outer loop
      vertex 0.477457 -1.46946 0
      vertex 1.85279 -0.470228 0
      vertex 0.732232 -1.76777 0
    endloop
  endfacet
  facet normal -0 0 -1
    outer loop
      vertex 1.85279 -0.470228 0
      vertex 0.477457 -1.46946 0
      vertex 1.78719 -0.363192 0
    endloop
  endfacet
  facet normal 0 0 -1
    outer loop
      vertex 35.8 14.5 0
      vertex 37.5 14.5 0
      vertex 37.4692 14.1089 0
    endloop
  endfacet
  facet normal 0 0 -1
    outer loop
      vertex 35.7901 14.3749 0
      vertex 37.4692 14.1089 0
      vertex 37.3776 13.7275 0
    endloop
  endfacet
  facet normal 0 0 -1
    outer loop
      vertex 37.5 14.5 0
      vertex 35.8 14.5 0
      vertex 37.4692 14.8911 0
    endloop
  endfacet
  facet normal 0 0 -1
    outer loop
      vertex 35.7608 14.2528 0
      vertex 37.3776 13.7275 0
      vertex 37.2275 13.365 0
    endloop
  endfacet
  facet normal 0 0 -1
    outer loop
      vertex 35.7901 14.6251 0
      vertex 37.4692 14.8911 0
      vertex 35.8 14.5 0
    endloop
  endfacet
  facet normal 0 0 -1
    outer loop
      vertex 35.7128 14.1368 0
      vertex 37.2275 13.365 0
      vertex 37.0225 13.0305 0
    endloop
  endfacet
  facet normal -0 0 -1
    outer loop
      vertex 37.4692 14.8911 0
      vertex 35.7901 14.6251 0
      vertex 37.3776 15.2725 0
    endloop
  endfacet
  facet normal 0 0 -1
    outer loop
      vertex 35.6472 14.0298 0
      vertex 37.0225 13.0305 0
      vertex 36.7678 12.7322 0
    endloop
  endfacet
  facet normal 0 0 -1
    outer loop
      vertex 35.7608 14.7472 0
      vertex 37.3776 15.2725 0
      vertex 35.7901 14.6251 0
    endloop
  endfacet
  facet normal 0 0 -1
    outer loop
      vertex 35.5657 13.9343 0
      vertex 36.7678 12.7322 0
      vertex 36.4695 12.4775 0
    endloop
  endfacet
  facet normal -0 0 -1
    outer loop
      vertex 37.3776 15.2725 0
      vertex 35.7608 14.7472 0
      vertex 37.2275 15.635 0
    endloop
  endfacet
  facet normal 0 0 -1
    outer loop
      vertex 35.4702 13.8528 0
      vertex 36.4695 12.4775 0
      vertex 36.135 12.2725 0
    endloop
  endfacet
  facet normal 0 0 -1
    outer loop
      vertex 35.7128 14.8632 0
      vertex 37.2275 15.635 0
      vertex 35.7608 14.7472 0
    endloop
  endfacet
  facet normal -0 0 -1
    outer loop
      vertex 37.2275 15.635 0
      vertex 35.7128 14.8632 0
      vertex 37.0225 15.9695 0
    endloop
  endfacet
  facet normal 0 0 -1
    outer loop
      vertex 37.4692 14.1089 0
      vertex 35.7901 14.3749 0
      vertex 35.8 14.5 0
    endloop
  endfacet
  facet normal 0 0 -1
    outer loop
      vertex 35.3632 13.7872 0
      vertex 36.135 12.2725 0
      vertex 35.7725 12.1224 0
    endloop
  endfacet
  facet normal 0 0 -1
    outer loop
      vertex 37.3776 13.7275 0
      vertex 35.7608 14.2528 0
      vertex 35.7901 14.3749 0
    endloop
  endfacet
  facet normal 0 0 -1
    outer loop
      vertex 37.2275 13.365 0
      vertex 35.7128 14.1368 0
      vertex 35.7608 14.2528 0
    endloop
  endfacet
  facet normal 0 0 -1
    outer loop
      vertex 37.0225 13.0305 0
      vertex 35.6472 14.0298 0
      vertex 35.7128 14.1368 0
    endloop
  endfacet
  facet normal 0 0 -1
    outer loop
      vertex 36.7678 12.7322 0
      vertex 35.5657 13.9343 0
      vertex 35.6472 14.0298 0
    endloop
  endfacet
  facet normal 0 0 -1
    outer loop
      vertex 36.4695 12.4775 0
      vertex 35.4702 13.8528 0
      vertex 35.5657 13.9343 0
    endloop
  endfacet
  facet normal 0 0 -1
    outer loop
      vertex 35.2472 13.7392 0
      vertex 35.7725 12.1224 0
      vertex 35.3911 12.0308 0
    endloop
  endfacet
  facet normal 0 0 -1
    outer loop
      vertex 36.135 12.2725 0
      vertex 35.3632 13.7872 0
      vertex 35.4702 13.8528 0
    endloop
  endfacet
  facet normal 0 0 -1
    outer loop
      vertex 35.7725 12.1224 0
      vertex 35.2472 13.7392 0
      vertex 35.3632 13.7872 0
    endloop
  endfacet
  facet normal 0 0 -1
    outer loop
      vertex 35.3911 12.0308 0
      vertex 35.1251 13.7098 0
      vertex 35.2472 13.7392 0
    endloop
  endfacet
  facet normal 0 0 -1
    outer loop
      vertex 35 12 0
      vertex 35.1251 13.7098 0
      vertex 35.3911 12.0308 0
    endloop
  endfacet
  facet normal 0 0 -1
    outer loop
      vertex 35 12 0
      vertex 35 13.7 0
      vertex 35.1251 13.7098 0
    endloop
  endfacet
  facet normal 0 0 -1
    outer loop
      vertex 35 12 0
      vertex 34.8749 13.7098 0
      vertex 35 13.7 0
    endloop
  endfacet
  facet normal 0 0 -1
    outer loop
      vertex 35 12 0
      vertex 34.7528 13.7392 0
      vertex 34.8749 13.7098 0
    endloop
  endfacet
  facet normal 0 0 -1
    outer loop
      vertex 35 12 0
      vertex 34.6368 13.7872 0
      vertex 34.7528 13.7392 0
    endloop
  endfacet
  facet normal 0 0 -1
    outer loop
      vertex 35 12 0
      vertex 34.5298 13.8528 0
      vertex 34.6368 13.7872 0
    endloop
  endfacet
  facet normal 0 0 -1
    outer loop
      vertex 35 12 0
      vertex 34.4343 13.9343 0
      vertex 34.5298 13.8528 0
    endloop
  endfacet
  facet normal 0 0 -1
    outer loop
      vertex 35 12 0
      vertex 34.3528 14.0298 0
      vertex 34.4343 13.9343 0
    endloop
  endfacet
  facet normal 0 0 -1
    outer loop
      vertex 35 12 0
      vertex 34.2872 14.1368 0
      vertex 34.3528 14.0298 0
    endloop
  endfacet
  facet normal 0 0 -1
    outer loop
      vertex 10 12 0
      vertex 34.2872 14.1368 0
      vertex 35 12 0
    endloop
  endfacet
  facet normal -0 0 -1
    outer loop
      vertex 34.2098 14.3749 0
      vertex 10 12 0
      vertex 34.2 14.5 0
    endloop
  endfacet
  facet normal -0 0 -1
    outer loop
      vertex 34.2392 14.2528 0
      vertex 10 12 0
      vertex 34.2098 14.3749 0
    endloop
  endfacet
  facet normal -0 0 -1
    outer loop
      vertex 34.2872 14.1368 0
      vertex 10 12 0
      vertex 34.2392 14.2528 0
    endloop
  endfacet
  facet normal 0 0 -1
    outer loop
      vertex 35.6472 14.9702 0
      vertex 37.0225 15.9695 0
      vertex 35.7128 14.8632 0
    endloop
  endfacet
  facet normal -0 0 -1
    outer loop
      vertex 37.0225 15.9695 0
      vertex 35.6472 14.9702 0
      vertex 36.7678 16.2678 0
    endloop
  endfacet
  facet normal 0 0 -1
    outer loop
      vertex 35.5657 15.0657 0
      vertex 36.7678 16.2678 0
      vertex 35.6472 14.9702 0
    endloop
  endfacet
  facet normal -0 0 -1
    outer loop
      vertex 36.7678 16.2678 0
      vertex 35.5657 15.0657 0
      vertex 36.4695 16.5225 0
    endloop
  endfacet
  facet normal 0 0 -1
    outer loop
      vertex 35.4702 15.1472 0
      vertex 36.4695 16.5225 0
      vertex 35.5657 15.0657 0
    endloop
  endfacet
  facet normal -0 0 -1
    outer loop
      vertex 36.4695 16.5225 0
      vertex 35.4702 15.1472 0
      vertex 36.135 16.7275 0
    endloop
  endfacet
  facet normal 0 0 -1
    outer loop
      vertex 35.3632 15.2128 0
      vertex 36.135 16.7275 0
      vertex 35.4702 15.1472 0
    endloop
  endfacet
  facet normal -0 0 -1
    outer loop
      vertex 36.135 16.7275 0
      vertex 35.3632 15.2128 0
      vertex 35.7725 16.8776 0
    endloop
  endfacet
  facet normal 0 0 -1
    outer loop
      vertex 35.2472 15.2608 0
      vertex 35.7725 16.8776 0
      vertex 35.3632 15.2128 0
    endloop
  endfacet
  facet normal -0 0 -1
    outer loop
      vertex 35.7725 16.8776 0
      vertex 35.2472 15.2608 0
      vertex 35.3911 16.9692 0
    endloop
  endfacet
  facet normal 0 0 -1
    outer loop
      vertex 35.1251 15.2902 0
      vertex 35.3911 16.9692 0
      vertex 35.2472 15.2608 0
    endloop
  endfacet
  facet normal 0 0 -1
    outer loop
      vertex 35 15.3 0
      vertex 35.3911 16.9692 0
      vertex 35.1251 15.2902 0
    endloop
  endfacet
  facet normal 0 0 -1
    outer loop
      vertex 35 15.3 0
      vertex 35 17 0
      vertex 35.3911 16.9692 0
    endloop
  endfacet
  facet normal 0 0 -1
    outer loop
      vertex 34.8749 15.2902 0
      vertex 35 17 0
      vertex 35 15.3 0
    endloop
  endfacet
  facet normal 0 0 -1
    outer loop
      vertex 34.7528 15.2608 0
      vertex 35 17 0
      vertex 34.8749 15.2902 0
    endloop
  endfacet
  facet normal 0 0 -1
    outer loop
      vertex 34.6368 15.2128 0
      vertex 35 17 0
      vertex 34.7528 15.2608 0
    endloop
  endfacet
  facet normal 0 0 -1
    outer loop
      vertex 34.5298 15.1472 0
      vertex 35 17 0
      vertex 34.6368 15.2128 0
    endloop
  endfacet
  facet normal 0 0 -1
    outer loop
      vertex 34.4343 15.0657 0
      vertex 35 17 0
      vertex 34.5298 15.1472 0
    endloop
  endfacet
  facet normal 0 0 -1
    outer loop
      vertex 34.3528 14.9702 0
      vertex 35 17 0
      vertex 34.4343 15.0657 0
    endloop
  endfacet
  facet normal 0 0 -1
    outer loop
      vertex 34.2872 14.8632 0
      vertex 35 17 0
      vertex 34.3528 14.9702 0
    endloop
  endfacet
  facet normal 0 0 -1
    outer loop
      vertex 10 12 0
      vertex 34.2872 14.8632 0
      vertex 34.2392 14.7472 0
    endloop
  endfacet
  facet normal 0 0 -1
    outer loop
      vertex 10 12 0
      vertex 34.2098 14.6251 0
      vertex 34.2 14.5 0
    endloop
  endfacet
  facet normal 0 0 -1
    outer loop
      vertex 10 12 0
      vertex 34.2392 14.7472 0
      vertex 34.2098 14.6251 0
    endloop
  endfacet
  facet normal -0 0 -1
    outer loop
      vertex 34.2872 14.8632 0
      vertex 10 12 0
      vertex 35 17 0
    endloop
  endfacet
  facet normal 0 0 -1
    outer loop
      vertex 8.8 9.7 0
      vertex 10 12 0
      vertex 8.8 6.5 0
    endloop
  endfacet
  facet normal 0 0 -1
    outer loop
      vertex 7 9.7 0
      vertex 10 12 0
      vertex 8.8 9.7 0
    endloop
  endfacet
  facet normal 0 0 -1
    outer loop
      vertex 5.8 9.7 0
      vertex 7 9.7 0
      vertex 5.8 6.5 0
    endloop
  endfacet
  facet normal 0 0 -1
    outer loop
      vertex 5.8 9.7 0
      vertex 10 12 0
      vertex 7 9.7 0
    endloop
  endfacet
  facet normal 0 0 -1
    outer loop
      vertex 2.5 17 0
      vertex 5.8 9.7 0
      vertex 4 9.7 0
    endloop
  endfacet
  facet normal 0 0 -1
    outer loop
      vertex 2.97023 -0.647213 0
      vertex 3.96946 -2.02254 0
      vertex 3.63498 -2.22752 0
    endloop
  endfacet
  facet normal 0 0 -1
    outer loop
      vertex 3.96946 -2.02254 0
      vertex 3.3 0 0
      vertex 3.29015 0.125147 0
    endloop
  endfacet
  facet normal 0 0 -1
    outer loop
      vertex 5 0 0
      vertex 3.2128 0.363192 0
      vertex 3.14721 0.470228 0
    endloop
  endfacet
  facet normal 0 0 -1
    outer loop
      vertex 3.06569 0.565685 0
      vertex 5 0 0
      vertex 3.14721 0.470228 0
    endloop
  endfacet
  facet normal 0 0 -1
    outer loop
      vertex 5 0 0
      vertex 3.06569 0.565685 0
      vertex 5 4 0
    endloop
  endfacet
  facet normal 0 0 -1
    outer loop
      vertex 2.97023 0.647213 0
      vertex 5 4 0
      vertex 3.06569 0.565685 0
    endloop
  endfacet
  facet normal 0 0 -1
    outer loop
      vertex 2.86319 0.712805 0
      vertex 5 4 0
      vertex 2.97023 0.647213 0
    endloop
  endfacet
  facet normal 0 0 -1
    outer loop
      vertex 2.74721 0.760845 0
      vertex 5 4 0
      vertex 2.86319 0.712805 0
    endloop
  endfacet
  facet normal 0 0 -1
    outer loop
      vertex 2.62515 0.790151 0
      vertex 5 4 0
      vertex 2.74721 0.760845 0
    endloop
  endfacet
  facet normal 0 0 -1
    outer loop
      vertex 4 6.5 0
      vertex 2.8 6.5 0
      vertex 4 9.7 0
    endloop
  endfacet
  facet normal 0 0 -1
    outer loop
      vertex 2.8 9.7 0
      vertex 4 9.7 0
      vertex 2.8 6.5 0
    endloop
  endfacet
  facet normal 0 0 -1
    outer loop
      vertex 0 14.5 0
      vertex 4 9.7 0
      vertex 2.8 9.7 0
    endloop
  endfacet
  facet normal 0 0 -1
    outer loop
      vertex 10 12 0
      vertex 2.5 17 0
      vertex 35 17 0
    endloop
  endfacet
  facet normal 0 0 -1
    outer loop
      vertex 5.8 9.7 0
      vertex 2.5 17 0
      vertex 10 12 0
    endloop
  endfacet
  facet normal 0 0 -1
    outer loop
      vertex 4 9.7 0
      vertex 0 14.5 0
      vertex 2.5 17 0
    endloop
  endfacet
  facet normal 0 0 -1
    outer loop
      vertex 2.5 17 0
      vertex 0 14.5 0
      vertex 2.10891 16.9692 0
    endloop
  endfacet
  facet normal 0 0 -1
    outer loop
      vertex 2.10891 16.9692 0
      vertex 0 14.5 0
      vertex 1.72746 16.8776 0
    endloop
  endfacet
  facet normal 0 0 -1
    outer loop
      vertex 1.72746 16.8776 0
      vertex 0 14.5 0
      vertex 1.36502 16.7275 0
    endloop
  endfacet
  facet normal 0 0 -1
    outer loop
      vertex 0 14.5 0
      vertex 2.8 9.7 0
      vertex 1 9.7 0
    endloop
  endfacet
  facet normal 0 0 -1
    outer loop
      vertex 0 14.5 0
      vertex 1 6.5 0
      vertex 0 0 0
    endloop
  endfacet
  facet normal 0 0 -1
    outer loop
      vertex 1 6.5 0
      vertex 0 14.5 0
      vertex 1 9.7 0
    endloop
  endfacet
  facet normal 0 0 -1
    outer loop
      vertex 0.0307789 -0.391086 0
      vertex 1.70985 -0.125147 0
      vertex 0.122358 -0.772542 0
    endloop
  endfacet
  facet normal 0 0 -1
    outer loop
      vertex 1.36502 16.7275 0
      vertex 0 14.5 0
      vertex 1.03054 16.5225 0
    endloop
  endfacet
  facet normal -0 0 -1
    outer loop
      vertex 1.70985 -0.125147 0
      vertex 0.0307789 -0.391086 0
      vertex 1.7 0 0
    endloop
  endfacet
  facet normal 0 0 -1
    outer loop
      vertex 1.03054 16.5225 0
      vertex 0 14.5 0
      vertex 0.732232 16.2678 0
    endloop
  endfacet
  facet normal 0 0 -1
    outer loop
      vertex 0 0 0
      vertex 1.7 0 0
      vertex 0.0307789 -0.391086 0
    endloop
  endfacet
  facet normal 0 0 -1
    outer loop
      vertex 0.732232 16.2678 0
      vertex 0 14.5 0
      vertex 0.477457 15.9695 0
    endloop
  endfacet
  facet normal 0 0 -1
    outer loop
      vertex 1.7 0 0
      vertex 0 0 0
      vertex 1.70985 0.125147 0
    endloop
  endfacet
  facet normal 0 0 -1
    outer loop
      vertex 0.477457 15.9695 0
      vertex 0 14.5 0
      vertex 0.272483 15.635 0
    endloop
  endfacet
  facet normal 0 0 -1
    outer loop
      vertex 0.272483 15.635 0
      vertex 0 14.5 0
      vertex 0.122358 15.2725 0
    endloop
  endfacet
  facet normal 0 0 -1
    outer loop
      vertex 0.122358 15.2725 0
      vertex 0 14.5 0
      vertex 0.0307789 14.8911 0
    endloop
  endfacet
  facet normal 1 -0 0
    outer loop
      vertex 10 4 2
      vertex 10 12 0
      vertex 10 12 2
    endloop
  endfacet
  facet normal 1 0 0
    outer loop
      vertex 10 12 0
      vertex 10 4 2
      vertex 10 4 0
    endloop
  endfacet
  facet normal 0 -1 0
    outer loop
      vertex 5 4 0
      vertex 10 4 2
      vertex 5 4 2
    endloop
  endfacet
  facet normal 0 -1 -0
    outer loop
      vertex 10 4 2
      vertex 5 4 0
      vertex 10 4 0
    endloop
  endfacet
  facet normal -0.996917 -0.0784585 0
    outer loop
      vertex 0.0307789 -0.391086 0
      vertex 0 0 2
      vertex 0 0 0
    endloop
  endfacet
  facet normal -0.996917 -0.0784585 0
    outer loop
      vertex 0 0 2
      vertex 0.0307789 -0.391086 0
      vertex 0.0307789 -0.391086 2
    endloop
  endfacet
  facet normal 0.0784608 -0.996917 0
    outer loop
      vertex 2.5 -2.5 0
      vertex 2.89109 -2.46922 2
      vertex 2.5 -2.5 2
    endloop
  endfacet
  facet normal 0.0784608 -0.996917 0
    outer loop
      vertex 2.89109 -2.46922 2
      vertex 2.5 -2.5 0
      vertex 2.89109 -2.46922 0
    endloop
  endfacet
  facet normal 0.97237 -0.233445 0
    outer loop
      vertex 4.87764 -0.772542 2
      vertex 4.96922 -0.391086 0
      vertex 4.96922 -0.391086 2
    endloop
  endfacet
  facet normal 0.97237 -0.233445 0
    outer loop
      vertex 4.96922 -0.391086 0
      vertex 4.87764 -0.772542 2
      vertex 4.87764 -0.772542 0
    endloop
  endfacet
  facet normal 0.233445 -0.97237 0
    outer loop
      vertex 2.89109 -2.46922 0
      vertex 3.27254 -2.37764 2
      vertex 2.89109 -2.46922 2
    endloop
  endfacet
  facet normal 0.233445 -0.97237 0
    outer loop
      vertex 3.27254 -2.37764 2
      vertex 2.89109 -2.46922 0
      vertex 3.27254 -2.37764 0
    endloop
  endfacet
  facet normal 0.996917 -0.078461 0
    outer loop
      vertex 4.96922 -0.391086 2
      vertex 5 0 0
      vertex 5 0 2
    endloop
  endfacet
  facet normal 0.996917 -0.078461 0
    outer loop
      vertex 5 0 0
      vertex 4.96922 -0.391086 2
      vertex 4.96922 -0.391086 0
    endloop
  endfacet
  facet normal 0.760407 -0.649446 0
    outer loop
      vertex 4.26777 -1.76777 2
      vertex 4.52254 -1.46946 0
      vertex 4.52254 -1.46946 2
    endloop
  endfacet
  facet normal 0.760407 -0.649446 0
    outer loop
      vertex 4.52254 -1.46946 0
      vertex 4.26777 -1.76777 2
      vertex 4.26777 -1.76777 0
    endloop
  endfacet
  facet normal 0.92388 -0.382683 0
    outer loop
      vertex 4.72752 -1.13498 2
      vertex 4.87764 -0.772542 0
      vertex 4.87764 -0.772542 2
    endloop
  endfacet
  facet normal 0.92388 -0.382683 0
    outer loop
      vertex 4.87764 -0.772542 0
      vertex 4.72752 -1.13498 2
      vertex 4.72752 -1.13498 0
    endloop
  endfacet
  facet normal -0.97237 -0.233445 0
    outer loop
      vertex 0.122358 -0.772542 0
      vertex 0.0307789 -0.391086 2
      vertex 0.0307789 -0.391086 0
    endloop
  endfacet
  facet normal -0.97237 -0.233445 0
    outer loop
      vertex 0.0307789 -0.391086 2
      vertex 0.122358 -0.772542 0
      vertex 0.122358 -0.772542 2
    endloop
  endfacet
  facet normal 0.382683 -0.92388 0
    outer loop
      vertex 3.27254 -2.37764 0
      vertex 3.63498 -2.22752 2
      vertex 3.27254 -2.37764 2
    endloop
  endfacet
  facet normal 0.382683 -0.92388 0
    outer loop
      vertex 3.63498 -2.22752 2
      vertex 3.27254 -2.37764 0
      vertex 3.63498 -2.22752 0
    endloop
  endfacet
  facet normal 0.522499 -0.85264 0
    outer loop
      vertex 3.63498 -2.22752 0
      vertex 3.96946 -2.02254 2
      vertex 3.63498 -2.22752 2
    endloop
  endfacet
  facet normal 0.522499 -0.85264 0
    outer loop
      vertex 3.96946 -2.02254 2
      vertex 3.63498 -2.22752 0
      vertex 3.96946 -2.02254 0
    endloop
  endfacet
  facet normal 0.85264 -0.522499 0
    outer loop
      vertex 4.52254 -1.46946 2
      vertex 4.72752 -1.13498 0
      vertex 4.72752 -1.13498 2
    endloop
  endfacet
  facet normal 0.85264 -0.522499 0
    outer loop
      vertex 4.72752 -1.13498 0
      vertex 4.52254 -1.46946 2
      vertex 4.52254 -1.46946 0
    endloop
  endfacet
  facet normal -0.382683 -0.92388 0
    outer loop
      vertex 1.36502 -2.22752 0
      vertex 1.72746 -2.37764 2
      vertex 1.36502 -2.22752 2
    endloop
  endfacet
  facet normal -0.382683 -0.92388 -0
    outer loop
      vertex 1.72746 -2.37764 2
      vertex 1.36502 -2.22752 0
      vertex 1.72746 -2.37764 0
    endloop
  endfacet
  facet normal -0.649446 -0.760407 0
    outer loop
      vertex 0.732232 -1.76777 0
      vertex 1.03054 -2.02254 2
      vertex 0.732232 -1.76777 2
    endloop
  endfacet
  facet normal -0.649446 -0.760407 -0
    outer loop
      vertex 1.03054 -2.02254 2
      vertex 0.732232 -1.76777 0
      vertex 1.03054 -2.02254 0
    endloop
  endfacet
  facet normal -0.92388 -0.382683 0
    outer loop
      vertex 0.272483 -1.13498 0
      vertex 0.122358 -0.772542 2
      vertex 0.122358 -0.772542 0
    endloop
  endfacet
  facet normal -0.92388 -0.382683 0
    outer loop
      vertex 0.122358 -0.772542 2
      vertex 0.272483 -1.13498 0
      vertex 0.272483 -1.13498 2
    endloop
  endfacet
  facet normal 0.649446 -0.760407 0
    outer loop
      vertex 3.96946 -2.02254 0
      vertex 4.26777 -1.76777 2
      vertex 3.96946 -2.02254 2
    endloop
  endfacet
  facet normal 0.649446 -0.760407 0
    outer loop
      vertex 4.26777 -1.76777 2
      vertex 3.96946 -2.02254 0
      vertex 4.26777 -1.76777 0
    endloop
  endfacet
  facet normal -0.078461 -0.996917 0
    outer loop
      vertex 2.10891 -2.46922 0
      vertex 2.5 -2.5 2
      vertex 2.10891 -2.46922 2
    endloop
  endfacet
  facet normal -0.078461 -0.996917 -0
    outer loop
      vertex 2.5 -2.5 2
      vertex 2.10891 -2.46922 0
      vertex 2.5 -2.5 0
    endloop
  endfacet
  facet normal -0.522499 -0.85264 0
    outer loop
      vertex 1.03054 -2.02254 0
      vertex 1.36502 -2.22752 2
      vertex 1.03054 -2.02254 2
    endloop
  endfacet
  facet normal -0.522499 -0.85264 -0
    outer loop
      vertex 1.36502 -2.22752 2
      vertex 1.03054 -2.02254 0
      vertex 1.36502 -2.22752 0
    endloop
  endfacet
  facet normal -0.233445 -0.97237 0
    outer loop
      vertex 1.72746 -2.37764 0
      vertex 2.10891 -2.46922 2
      vertex 1.72746 -2.37764 2
    endloop
  endfacet
  facet normal -0.233445 -0.97237 -0
    outer loop
      vertex 2.10891 -2.46922 2
      vertex 1.72746 -2.37764 0
      vertex 2.10891 -2.46922 0
    endloop
  endfacet
  facet normal -0.760407 -0.649446 0
    outer loop
      vertex 0.732232 -1.76777 0
      vertex 0.477457 -1.46946 2
      vertex 0.477457 -1.46946 0
    endloop
  endfacet
  facet normal -0.760407 -0.649446 0
    outer loop
      vertex 0.477457 -1.46946 2
      vertex 0.732232 -1.76777 0
      vertex 0.732232 -1.76777 2
    endloop
  endfacet
  facet normal -0.85264 -0.522499 0
    outer loop
      vertex 0.477457 -1.46946 0
      vertex 0.272483 -1.13498 2
      vertex 0.272483 -1.13498 0
    endloop
  endfacet
  facet normal -0.85264 -0.522499 0
    outer loop
      vertex 0.272483 -1.13498 2
      vertex 0.477457 -1.46946 0
      vertex 0.477457 -1.46946 2
    endloop
  endfacet
  facet normal -0.0784632 0.996917 0
    outer loop
      vertex 2.5 17 0
      vertex 2.10891 16.9692 2
      vertex 2.5 17 2
    endloop
  endfacet
  facet normal -0.0784632 0.996917 0
    outer loop
      vertex 2.10891 16.9692 2
      vertex 2.5 17 0
      vertex 2.10891 16.9692 0
    endloop
  endfacet
  facet normal -0.760407 0.649446 0
    outer loop
      vertex 0.477457 15.9695 0
      vertex 0.732232 16.2678 2
      vertex 0.732232 16.2678 0
    endloop
  endfacet
  facet normal -0.760407 0.649446 0
    outer loop
      vertex 0.732232 16.2678 2
      vertex 0.477457 15.9695 0
      vertex 0.477457 15.9695 2
    endloop
  endfacet
  facet normal -0.382681 0.923881 0
    outer loop
      vertex 1.72746 16.8776 0
      vertex 1.36502 16.7275 2
      vertex 1.72746 16.8776 2
    endloop
  endfacet
  facet normal -0.382681 0.923881 0
    outer loop
      vertex 1.36502 16.7275 2
      vertex 1.72746 16.8776 0
      vertex 1.36502 16.7275 0
    endloop
  endfacet
  facet normal -0.92388 0.382683 0
    outer loop
      vertex 0.122358 15.2725 0
      vertex 0.272483 15.635 2
      vertex 0.272483 15.635 0
    endloop
  endfacet
  facet normal -0.92388 0.382683 0
    outer loop
      vertex 0.272483 15.635 2
      vertex 0.122358 15.2725 0
      vertex 0.122358 15.2725 2
    endloop
  endfacet
  facet normal -0.85264 0.522499 0
    outer loop
      vertex 0.272483 15.635 0
      vertex 0.477457 15.9695 2
      vertex 0.477457 15.9695 0
    endloop
  endfacet
  facet normal -0.85264 0.522499 0
    outer loop
      vertex 0.477457 15.9695 2
      vertex 0.272483 15.635 0
      vertex 0.272483 15.635 2
    endloop
  endfacet
  facet normal -0.97237 0.233445 0
    outer loop
      vertex 0.0307789 14.8911 0
      vertex 0.122358 15.2725 2
      vertex 0.122358 15.2725 0
    endloop
  endfacet
  facet normal -0.97237 0.233445 0
    outer loop
      vertex 0.122358 15.2725 2
      vertex 0.0307789 14.8911 0
      vertex 0.0307789 14.8911 2
    endloop
  endfacet
  facet normal -0.649445 0.760409 0
    outer loop
      vertex 1.03054 16.5225 0
      vertex 0.732232 16.2678 2
      vertex 1.03054 16.5225 2
    endloop
  endfacet
  facet normal -0.649445 0.760409 0
    outer loop
      vertex 0.732232 16.2678 2
      vertex 1.03054 16.5225 0
      vertex 0.732232 16.2678 0
    endloop
  endfacet
  facet normal -0.233445 0.97237 0
    outer loop
      vertex 2.10891 16.9692 0
      vertex 1.72746 16.8776 2
      vertex 2.10891 16.9692 2
    endloop
  endfacet
  facet normal -0.233445 0.97237 0
    outer loop
      vertex 1.72746 16.8776 2
      vertex 2.10891 16.9692 0
      vertex 1.72746 16.8776 0
    endloop
  endfacet
  facet normal -0.996917 0.0784585 0
    outer loop
      vertex 0 14.5 0
      vertex 0.0307789 14.8911 2
      vertex 0.0307789 14.8911 0
    endloop
  endfacet
  facet normal -0.996917 0.0784585 0
    outer loop
      vertex 0.0307789 14.8911 2
      vertex 0 14.5 0
      vertex 0 14.5 2
    endloop
  endfacet
  facet normal -0.522501 0.852639 0
    outer loop
      vertex 1.36502 16.7275 0
      vertex 1.03054 16.5225 2
      vertex 1.36502 16.7275 2
    endloop
  endfacet
  facet normal -0.522501 0.852639 0
    outer loop
      vertex 1.03054 16.5225 2
      vertex 1.36502 16.7275 0
      vertex 1.03054 16.5225 0
    endloop
  endfacet
  facet normal 0 -1 0
    outer loop
      vertex 10 12 0
      vertex 35 12 2
      vertex 10 12 2
    endloop
  endfacet
  facet normal 0 -1 -0
    outer loop
      vertex 35 12 2
      vertex 10 12 0
      vertex 35 12 0
    endloop
  endfacet
  facet normal 0 1 -0
    outer loop
      vertex 35 17 0
      vertex 2.5 17 2
      vertex 35 17 2
    endloop
  endfacet
  facet normal 0 1 0
    outer loop
      vertex 2.5 17 2
      vertex 35 17 0
      vertex 2.5 17 0
    endloop
  endfacet
  facet normal 0.996917 0.0784634 0
    outer loop
      vertex 37.5 14.5 2
      vertex 37.4692 14.8911 0
      vertex 37.4692 14.8911 2
    endloop
  endfacet
  facet normal 0.996917 0.0784634 0
    outer loop
      vertex 37.4692 14.8911 0
      vertex 37.5 14.5 2
      vertex 37.5 14.5 0
    endloop
  endfacet
  facet normal 0.649444 0.76041 -0
    outer loop
      vertex 36.7678 16.2678 0
      vertex 36.4695 16.5225 2
      vertex 36.7678 16.2678 2
    endloop
  endfacet
  facet normal 0.649444 0.76041 0
    outer loop
      vertex 36.4695 16.5225 2
      vertex 36.7678 16.2678 0
      vertex 36.4695 16.5225 0
    endloop
  endfacet
  facet normal 0.923881 0.382681 0
    outer loop
      vertex 37.3776 15.2725 2
      vertex 37.2275 15.635 0
      vertex 37.2275 15.635 2
    endloop
  endfacet
  facet normal 0.923881 0.382681 0
    outer loop
      vertex 37.2275 15.635 0
      vertex 37.3776 15.2725 2
      vertex 37.3776 15.2725 0
    endloop
  endfacet
  facet normal 0.97237 0.233445 0
    outer loop
      vertex 37.4692 14.8911 2
      vertex 37.3776 15.2725 0
      vertex 37.3776 15.2725 2
    endloop
  endfacet
  facet normal 0.97237 0.233445 0
    outer loop
      vertex 37.3776 15.2725 0
      vertex 37.4692 14.8911 2
      vertex 37.4692 14.8911 0
    endloop
  endfacet
  facet normal 0.38268 0.923881 -0
    outer loop
      vertex 36.135 16.7275 0
      vertex 35.7725 16.8776 2
      vertex 36.135 16.7275 2
    endloop
  endfacet
  facet normal 0.38268 0.923881 0
    outer loop
      vertex 35.7725 16.8776 2
      vertex 36.135 16.7275 0
      vertex 35.7725 16.8776 0
    endloop
  endfacet
  facet normal 0.5225 0.852639 -0
    outer loop
      vertex 36.4695 16.5225 0
      vertex 36.135 16.7275 2
      vertex 36.4695 16.5225 2
    endloop
  endfacet
  facet normal 0.5225 0.852639 0
    outer loop
      vertex 36.135 16.7275 2
      vertex 36.4695 16.5225 0
      vertex 36.135 16.7275 0
    endloop
  endfacet
  facet normal 0.233446 -0.97237 0
    outer loop
      vertex 35.3911 12.0308 0
      vertex 35.7725 12.1224 2
      vertex 35.3911 12.0308 2
    endloop
  endfacet
  facet normal 0.233446 -0.97237 0
    outer loop
      vertex 35.7725 12.1224 2
      vertex 35.3911 12.0308 0
      vertex 35.7725 12.1224 0
    endloop
  endfacet
  facet normal 0.760411 0.649442 0
    outer loop
      vertex 37.0225 15.9695 2
      vertex 36.7678 16.2678 0
      vertex 36.7678 16.2678 2
    endloop
  endfacet
  facet normal 0.760411 0.649442 0
    outer loop
      vertex 36.7678 16.2678 0
      vertex 37.0225 15.9695 2
      vertex 37.0225 15.9695 0
    endloop
  endfacet
  facet normal 0.852639 0.522501 0
    outer loop
      vertex 37.2275 15.635 2
      vertex 37.0225 15.9695 0
      vertex 37.0225 15.9695 2
    endloop
  endfacet
  facet normal 0.852639 0.522501 0
    outer loop
      vertex 37.0225 15.9695 0
      vertex 37.2275 15.635 2
      vertex 37.2275 15.635 0
    endloop
  endfacet
  facet normal 0.233446 0.97237 -0
    outer loop
      vertex 35.7725 16.8776 0
      vertex 35.3911 16.9692 2
      vertex 35.7725 16.8776 2
    endloop
  endfacet
  facet normal 0.233446 0.97237 0
    outer loop
      vertex 35.3911 16.9692 2
      vertex 35.7725 16.8776 0
      vertex 35.3911 16.9692 0
    endloop
  endfacet
  facet normal 0.0784632 0.996917 -0
    outer loop
      vertex 35.3911 16.9692 0
      vertex 35 17 2
      vertex 35.3911 16.9692 2
    endloop
  endfacet
  facet normal 0.0784632 0.996917 0
    outer loop
      vertex 35 17 2
      vertex 35.3911 16.9692 0
      vertex 35 17 0
    endloop
  endfacet
  facet normal 0.996917 -0.0784632 0
    outer loop
      vertex 37.4692 14.1089 2
      vertex 37.5 14.5 0
      vertex 37.5 14.5 2
    endloop
  endfacet
  facet normal 0.996917 -0.0784632 0
    outer loop
      vertex 37.5 14.5 0
      vertex 37.4692 14.1089 2
      vertex 37.4692 14.1089 0
    endloop
  endfacet
  facet normal 0.382682 -0.92388 0
    outer loop
      vertex 35.7725 12.1224 0
      vertex 36.135 12.2725 2
      vertex 35.7725 12.1224 2
    endloop
  endfacet
  facet normal 0.382682 -0.92388 0
    outer loop
      vertex 36.135 12.2725 2
      vertex 35.7725 12.1224 0
      vertex 36.135 12.2725 0
    endloop
  endfacet
  facet normal 0.522498 -0.85264 0
    outer loop
      vertex 36.135 12.2725 0
      vertex 36.4695 12.4775 2
      vertex 36.135 12.2725 2
    endloop
  endfacet
  facet normal 0.522498 -0.85264 0
    outer loop
      vertex 36.4695 12.4775 2
      vertex 36.135 12.2725 0
      vertex 36.4695 12.4775 0
    endloop
  endfacet
  facet normal 0.760411 -0.649442 0
    outer loop
      vertex 36.7678 12.7322 2
      vertex 37.0225 13.0305 0
      vertex 37.0225 13.0305 2
    endloop
  endfacet
  facet normal 0.760411 -0.649442 0
    outer loop
      vertex 37.0225 13.0305 0
      vertex 36.7678 12.7322 2
      vertex 36.7678 12.7322 0
    endloop
  endfacet
  facet normal 0.923881 -0.382681 0
    outer loop
      vertex 37.2275 13.365 2
      vertex 37.3776 13.7275 0
      vertex 37.3776 13.7275 2
    endloop
  endfacet
  facet normal 0.923881 -0.382681 0
    outer loop
      vertex 37.3776 13.7275 0
      vertex 37.2275 13.365 2
      vertex 37.2275 13.365 0
    endloop
  endfacet
  facet normal 0.852639 -0.522501 0
    outer loop
      vertex 37.0225 13.0305 2
      vertex 37.2275 13.365 0
      vertex 37.2275 13.365 2
    endloop
  endfacet
  facet normal 0.852639 -0.522501 0
    outer loop
      vertex 37.2275 13.365 0
      vertex 37.0225 13.0305 2
      vertex 37.0225 13.0305 0
    endloop
  endfacet
  facet normal 0.97237 -0.233445 0
    outer loop
      vertex 37.3776 13.7275 2
      vertex 37.4692 14.1089 0
      vertex 37.4692 14.1089 2
    endloop
  endfacet
  facet normal 0.97237 -0.233445 0
    outer loop
      vertex 37.4692 14.1089 0
      vertex 37.3776 13.7275 2
      vertex 37.3776 13.7275 0
    endloop
  endfacet
  facet normal 0.649445 -0.760408 0
    outer loop
      vertex 36.4695 12.4775 0
      vertex 36.7678 12.7322 2
      vertex 36.4695 12.4775 2
    endloop
  endfacet
  facet normal 0.649445 -0.760408 0
    outer loop
      vertex 36.7678 12.7322 2
      vertex 36.4695 12.4775 0
      vertex 36.7678 12.7322 0
    endloop
  endfacet
  facet normal 0.0784583 -0.996917 0
    outer loop
      vertex 35 12 0
      vertex 35.3911 12.0308 2
      vertex 35 12 2
    endloop
  endfacet
  facet normal 0.0784583 -0.996917 0
    outer loop
      vertex 35.3911 12.0308 2
      vertex 35 12 0
      vertex 35.3911 12.0308 0
    endloop
  endfacet
  facet normal -0.996918 -0.0784537 0
    outer loop
      vertex 3.3 0 0
      vertex 3.29015 0.125147 2
      vertex 3.29015 0.125147 0
    endloop
  endfacet
  facet normal -0.996918 -0.0784537 0
    outer loop
      vertex 3.29015 0.125147 2
      vertex 3.3 0 0
      vertex 3.3 0 2
    endloop
  endfacet
  facet normal 0.996918 -0.0784537 0
    outer loop
      vertex 1.7 0 2
      vertex 1.70985 0.125147 0
      vertex 1.70985 0.125147 2
    endloop
  endfacet
  facet normal 0.996918 -0.0784537 0
    outer loop
      vertex 1.70985 0.125147 0
      vertex 1.7 0 2
      vertex 1.7 0 0
    endloop
  endfacet
  facet normal 0.0784531 -0.996918 0
    outer loop
      vertex 2.37485 0.790151 0
      vertex 2.5 0.799999 2
      vertex 2.37485 0.790151 2
    endloop
  endfacet
  facet normal 0.0784531 -0.996918 0
    outer loop
      vertex 2.5 0.799999 2
      vertex 2.37485 0.790151 0
      vertex 2.5 0.799999 0
    endloop
  endfacet
  facet normal -0.0784537 0.996918 0
    outer loop
      vertex 2.62515 -0.790151 0
      vertex 2.5 -0.799999 2
      vertex 2.62515 -0.790151 2
    endloop
  endfacet
  facet normal -0.0784537 0.996918 0
    outer loop
      vertex 2.5 -0.799999 2
      vertex 2.62515 -0.790151 0
      vertex 2.5 -0.799999 0
    endloop
  endfacet
  facet normal -0.852641 0.522497 0
    outer loop
      vertex 3.14721 -0.470228 0
      vertex 3.2128 -0.363192 2
      vertex 3.2128 -0.363192 0
    endloop
  endfacet
  facet normal -0.852641 0.522497 0
    outer loop
      vertex 3.2128 -0.363192 2
      vertex 3.14721 -0.470228 0
      vertex 3.14721 -0.470228 2
    endloop
  endfacet
  facet normal -0.649447 -0.760407 0
    outer loop
      vertex 2.97023 0.647213 0
      vertex 3.06569 0.565685 2
      vertex 2.97023 0.647213 2
    endloop
  endfacet
  facet normal -0.649447 -0.760407 -0
    outer loop
      vertex 3.06569 0.565685 2
      vertex 2.97023 0.647213 0
      vertex 3.06569 0.565685 0
    endloop
  endfacet
  facet normal 0.649447 -0.760407 0
    outer loop
      vertex 1.93431 0.565685 0
      vertex 2.02977 0.647213 2
      vertex 1.93431 0.565685 2
    endloop
  endfacet
  facet normal 0.649447 -0.760407 0
    outer loop
      vertex 2.02977 0.647213 2
      vertex 1.93431 0.565685 0
      vertex 2.02977 0.647213 0
    endloop
  endfacet
  facet normal 0.382688 -0.923878 0
    outer loop
      vertex 2.13681 0.712805 0
      vertex 2.25279 0.760845 2
      vertex 2.13681 0.712805 2
    endloop
  endfacet
  facet normal 0.382688 -0.923878 0
    outer loop
      vertex 2.25279 0.760845 2
      vertex 2.13681 0.712805 0
      vertex 2.25279 0.760845 0
    endloop
  endfacet
  facet normal -0.852641 -0.522497 0
    outer loop
      vertex 3.2128 0.363192 0
      vertex 3.14721 0.470228 2
      vertex 3.14721 0.470228 0
    endloop
  endfacet
  facet normal -0.852641 -0.522497 0
    outer loop
      vertex 3.14721 0.470228 2
      vertex 3.2128 0.363192 0
      vertex 3.2128 0.363192 2
    endloop
  endfacet
  facet normal -0.97237 -0.233444 0
    outer loop
      vertex 3.29015 0.125147 0
      vertex 3.26085 0.247213 2
      vertex 3.26085 0.247213 0
    endloop
  endfacet
  facet normal -0.97237 -0.233444 0
    outer loop
      vertex 3.26085 0.247213 2
      vertex 3.29015 0.125147 0
      vertex 3.29015 0.125147 2
    endloop
  endfacet
  facet normal -0.760407 -0.649447 0
    outer loop
      vertex 3.14721 0.470228 0
      vertex 3.06569 0.565685 2
      vertex 3.06569 0.565685 0
    endloop
  endfacet
  facet normal -0.760407 -0.649447 0
    outer loop
      vertex 3.06569 0.565685 2
      vertex 3.14721 0.470228 0
      vertex 3.14721 0.470228 2
    endloop
  endfacet
  facet normal -0.382688 -0.923878 0
    outer loop
      vertex 2.74721 0.760845 0
      vertex 2.86319 0.712805 2
      vertex 2.74721 0.760845 2
    endloop
  endfacet
  facet normal -0.382688 -0.923878 -0
    outer loop
      vertex 2.86319 0.712805 2
      vertex 2.74721 0.760845 0
      vertex 2.86319 0.712805 0
    endloop
  endfacet
  facet normal -0.233444 -0.97237 0
    outer loop
      vertex 2.62515 0.790151 0
      vertex 2.74721 0.760845 2
      vertex 2.62515 0.790151 2
    endloop
  endfacet
  facet normal -0.233444 -0.97237 -0
    outer loop
      vertex 2.74721 0.760845 2
      vertex 2.62515 0.790151 0
      vertex 2.74721 0.760845 0
    endloop
  endfacet
  facet normal -0.522497 -0.852641 0
    outer loop
      vertex 2.86319 0.712805 0
      vertex 2.97023 0.647213 2
      vertex 2.86319 0.712805 2
    endloop
  endfacet
  facet normal -0.522497 -0.852641 -0
    outer loop
      vertex 2.97023 0.647213 2
      vertex 2.86319 0.712805 0
      vertex 2.97023 0.647213 0
    endloop
  endfacet
  facet normal 0.852641 -0.522497 0
    outer loop
      vertex 1.78719 0.363192 2
      vertex 1.85279 0.470228 0
      vertex 1.85279 0.470228 2
    endloop
  endfacet
  facet normal 0.852641 -0.522497 0
    outer loop
      vertex 1.85279 0.470228 0
      vertex 1.78719 0.363192 2
      vertex 1.78719 0.363192 0
    endloop
  endfacet
  facet normal 0.760407 -0.649447 0
    outer loop
      vertex 1.85279 0.470228 2
      vertex 1.93431 0.565685 0
      vertex 1.93431 0.565685 2
    endloop
  endfacet
  facet normal 0.760407 -0.649447 0
    outer loop
      vertex 1.93431 0.565685 0
      vertex 1.85279 0.470228 2
      vertex 1.85279 0.470228 0
    endloop
  endfacet
  facet normal 0.97237 -0.233444 0
    outer loop
      vertex 1.70985 0.125147 2
      vertex 1.73915 0.247213 0
      vertex 1.73915 0.247213 2
    endloop
  endfacet
  facet normal 0.97237 -0.233444 0
    outer loop
      vertex 1.73915 0.247213 0
      vertex 1.70985 0.125147 2
      vertex 1.70985 0.125147 0
    endloop
  endfacet
  facet normal 0.522497 -0.852641 0
    outer loop
      vertex 2.02977 0.647213 0
      vertex 2.13681 0.712805 2
      vertex 2.02977 0.647213 2
    endloop
  endfacet
  facet normal 0.522497 -0.852641 0
    outer loop
      vertex 2.13681 0.712805 2
      vertex 2.02977 0.647213 0
      vertex 2.13681 0.712805 0
    endloop
  endfacet
  facet normal 0.233444 -0.97237 0
    outer loop
      vertex 2.25279 0.760845 0
      vertex 2.37485 0.790151 2
      vertex 2.25279 0.760845 2
    endloop
  endfacet
  facet normal 0.233444 -0.97237 0
    outer loop
      vertex 2.37485 0.790151 2
      vertex 2.25279 0.760845 0
      vertex 2.37485 0.790151 0
    endloop
  endfacet
  facet normal -0.233444 0.97237 0
    outer loop
      vertex 2.74721 -0.760845 0
      vertex 2.62515 -0.790151 2
      vertex 2.74721 -0.760845 2
    endloop
  endfacet
  facet normal -0.233444 0.97237 0
    outer loop
      vertex 2.62515 -0.790151 2
      vertex 2.74721 -0.760845 0
      vertex 2.62515 -0.790151 0
    endloop
  endfacet
  facet normal -0.923878 -0.382688 0
    outer loop
      vertex 3.26085 0.247213 0
      vertex 3.2128 0.363192 2
      vertex 3.2128 0.363192 0
    endloop
  endfacet
  facet normal -0.923878 -0.382688 0
    outer loop
      vertex 3.2128 0.363192 2
      vertex 3.26085 0.247213 0
      vertex 3.26085 0.247213 2
    endloop
  endfacet
  facet normal -0.0784537 -0.996918 0
    outer loop
      vertex 2.5 0.799999 0
      vertex 2.62515 0.790151 2
      vertex 2.5 0.799999 2
    endloop
  endfacet
  facet normal -0.0784537 -0.996918 -0
    outer loop
      vertex 2.62515 0.790151 2
      vertex 2.5 0.799999 0
      vertex 2.62515 0.790151 0
    endloop
  endfacet
  facet normal 0.923878 -0.382688 0
    outer loop
      vertex 1.73915 0.247213 2
      vertex 1.78719 0.363192 0
      vertex 1.78719 0.363192 2
    endloop
  endfacet
  facet normal 0.923878 -0.382688 0
    outer loop
      vertex 1.78719 0.363192 0
      vertex 1.73915 0.247213 2
      vertex 1.73915 0.247213 0
    endloop
  endfacet
  facet normal -0.996918 0.0784537 0
    outer loop
      vertex 3.29015 -0.125147 0
      vertex 3.3 0 2
      vertex 3.3 0 0
    endloop
  endfacet
  facet normal -0.996918 0.0784537 0
    outer loop
      vertex 3.3 0 2
      vertex 3.29015 -0.125147 0
      vertex 3.29015 -0.125147 2
    endloop
  endfacet
  facet normal -0.649447 0.760407 0
    outer loop
      vertex 3.06569 -0.565685 0
      vertex 2.97023 -0.647213 2
      vertex 3.06569 -0.565685 2
    endloop
  endfacet
  facet normal -0.649447 0.760407 0
    outer loop
      vertex 2.97023 -0.647213 2
      vertex 3.06569 -0.565685 0
      vertex 2.97023 -0.647213 0
    endloop
  endfacet
  facet normal -0.522497 0.852641 0
    outer loop
      vertex 2.97023 -0.647213 0
      vertex 2.86319 -0.712805 2
      vertex 2.97023 -0.647213 2
    endloop
  endfacet
  facet normal -0.522497 0.852641 0
    outer loop
      vertex 2.86319 -0.712805 2
      vertex 2.97023 -0.647213 0
      vertex 2.86319 -0.712805 0
    endloop
  endfacet
  facet normal -0.923878 0.382688 0
    outer loop
      vertex 3.2128 -0.363192 0
      vertex 3.26085 -0.247213 2
      vertex 3.26085 -0.247213 0
    endloop
  endfacet
  facet normal -0.923878 0.382688 0
    outer loop
      vertex 3.26085 -0.247213 2
      vertex 3.2128 -0.363192 0
      vertex 3.2128 -0.363192 2
    endloop
  endfacet
  facet normal -0.97237 0.233444 0
    outer loop
      vertex 3.26085 -0.247213 0
      vertex 3.29015 -0.125147 2
      vertex 3.29015 -0.125147 0
    endloop
  endfacet
  facet normal -0.97237 0.233444 0
    outer loop
      vertex 3.29015 -0.125147 2
      vertex 3.26085 -0.247213 0
      vertex 3.26085 -0.247213 2
    endloop
  endfacet
  facet normal 0.233444 0.97237 -0
    outer loop
      vertex 2.37485 -0.790151 0
      vertex 2.25279 -0.760845 2
      vertex 2.37485 -0.790151 2
    endloop
  endfacet
  facet normal 0.233444 0.97237 0
    outer loop
      vertex 2.25279 -0.760845 2
      vertex 2.37485 -0.790151 0
      vertex 2.25279 -0.760845 0
    endloop
  endfacet
  facet normal 0.649447 0.760407 -0
    outer loop
      vertex 2.02977 -0.647213 0
      vertex 1.93431 -0.565685 2
      vertex 2.02977 -0.647213 2
    endloop
  endfacet
  facet normal 0.649447 0.760407 0
    outer loop
      vertex 1.93431 -0.565685 2
      vertex 2.02977 -0.647213 0
      vertex 1.93431 -0.565685 0
    endloop
  endfacet
  facet normal 0.760407 0.649447 0
    outer loop
      vertex 1.93431 -0.565685 2
      vertex 1.85279 -0.470228 0
      vertex 1.85279 -0.470228 2
    endloop
  endfacet
  facet normal 0.760407 0.649447 0
    outer loop
      vertex 1.85279 -0.470228 0
      vertex 1.93431 -0.565685 2
      vertex 1.93431 -0.565685 0
    endloop
  endfacet
  facet normal 0.923878 0.382688 0
    outer loop
      vertex 1.78719 -0.363192 2
      vertex 1.73915 -0.247213 0
      vertex 1.73915 -0.247213 2
    endloop
  endfacet
  facet normal 0.923878 0.382688 0
    outer loop
      vertex 1.73915 -0.247213 0
      vertex 1.78719 -0.363192 2
      vertex 1.78719 -0.363192 0
    endloop
  endfacet
  facet normal 0.97237 0.233444 0
    outer loop
      vertex 1.73915 -0.247213 2
      vertex 1.70985 -0.125147 0
      vertex 1.70985 -0.125147 2
    endloop
  endfacet
  facet normal 0.97237 0.233444 0
    outer loop
      vertex 1.70985 -0.125147 0
      vertex 1.73915 -0.247213 2
      vertex 1.73915 -0.247213 0
    endloop
  endfacet
  facet normal 0.996918 0.0784537 0
    outer loop
      vertex 1.70985 -0.125147 2
      vertex 1.7 0 0
      vertex 1.7 0 2
    endloop
  endfacet
  facet normal 0.996918 0.0784537 0
    outer loop
      vertex 1.7 0 0
      vertex 1.70985 -0.125147 2
      vertex 1.70985 -0.125147 0
    endloop
  endfacet
  facet normal -0.760407 0.649447 0
    outer loop
      vertex 3.06569 -0.565685 0
      vertex 3.14721 -0.470228 2
      vertex 3.14721 -0.470228 0
    endloop
  endfacet
  facet normal -0.760407 0.649447 0
    outer loop
      vertex 3.14721 -0.470228 2
      vertex 3.06569 -0.565685 0
      vertex 3.06569 -0.565685 2
    endloop
  endfacet
  facet normal -0.382688 0.923878 0
    outer loop
      vertex 2.86319 -0.712805 0
      vertex 2.74721 -0.760845 2
      vertex 2.86319 -0.712805 2
    endloop
  endfacet
  facet normal -0.382688 0.923878 0
    outer loop
      vertex 2.74721 -0.760845 2
      vertex 2.86319 -0.712805 0
      vertex 2.74721 -0.760845 0
    endloop
  endfacet
  facet normal 0.0784531 0.996918 -0
    outer loop
      vertex 2.5 -0.799999 0
      vertex 2.37485 -0.790151 2
      vertex 2.5 -0.799999 2
    endloop
  endfacet
  facet normal 0.0784531 0.996918 0
    outer loop
      vertex 2.37485 -0.790151 2
      vertex 2.5 -0.799999 0
      vertex 2.37485 -0.790151 0
    endloop
  endfacet
  facet normal 0.522497 0.852641 -0
    outer loop
      vertex 2.13681 -0.712805 0
      vertex 2.02977 -0.647213 2
      vertex 2.13681 -0.712805 2
    endloop
  endfacet
  facet normal 0.522497 0.852641 0
    outer loop
      vertex 2.02977 -0.647213 2
      vertex 2.13681 -0.712805 0
      vertex 2.02977 -0.647213 0
    endloop
  endfacet
  facet normal 0.852641 0.522497 0
    outer loop
      vertex 1.85279 -0.470228 2
      vertex 1.78719 -0.363192 0
      vertex 1.78719 -0.363192 2
    endloop
  endfacet
  facet normal 0.852641 0.522497 0
    outer loop
      vertex 1.78719 -0.363192 0
      vertex 1.85279 -0.470228 2
      vertex 1.85279 -0.470228 0
    endloop
  endfacet
  facet normal 0.382688 0.923878 -0
    outer loop
      vertex 2.25279 -0.760845 0
      vertex 2.13681 -0.712805 2
      vertex 2.25279 -0.760845 2
    endloop
  endfacet
  facet normal 0.382688 0.923878 0
    outer loop
      vertex 2.13681 -0.712805 2
      vertex 2.25279 -0.760845 0
      vertex 2.13681 -0.712805 0
    endloop
  endfacet
  facet normal -0.996917 -0.0784613 0
    outer loop
      vertex 35.8 14.5 0
      vertex 35.7901 14.6251 2
      vertex 35.7901 14.6251 0
    endloop
  endfacet
  facet normal -0.996917 -0.0784613 0
    outer loop
      vertex 35.7901 14.6251 2
      vertex 35.8 14.5 0
      vertex 35.8 14.5 2
    endloop
  endfacet
  facet normal 0.99692 0.0784305 0
    outer loop
      vertex 34.2098 14.3749 2
      vertex 34.2 14.5 0
      vertex 34.2 14.5 2
    endloop
  endfacet
  facet normal 0.99692 0.0784305 0
    outer loop
      vertex 34.2 14.5 0
      vertex 34.2098 14.3749 2
      vertex 34.2098 14.3749 0
    endloop
  endfacet
  facet normal 0.0784525 -0.996918 0
    outer loop
      vertex 34.8749 15.2902 0
      vertex 35 15.3 2
      vertex 34.8749 15.2902 2
    endloop
  endfacet
  facet normal 0.0784525 -0.996918 0
    outer loop
      vertex 35 15.3 2
      vertex 34.8749 15.2902 0
      vertex 35 15.3 0
    endloop
  endfacet
  facet normal -0.649454 -0.760401 0
    outer loop
      vertex 35.4702 15.1472 0
      vertex 35.5657 15.0657 2
      vertex 35.4702 15.1472 2
    endloop
  endfacet
  facet normal -0.649454 -0.760401 -0
    outer loop
      vertex 35.5657 15.0657 2
      vertex 35.4702 15.1472 0
      vertex 35.5657 15.0657 0
    endloop
  endfacet
  facet normal 0.760407 -0.649447 0
    outer loop
      vertex 34.3528 14.9702 2
      vertex 34.4343 15.0657 0
      vertex 34.4343 15.0657 2
    endloop
  endfacet
  facet normal 0.760407 -0.649447 0
    outer loop
      vertex 34.4343 15.0657 0
      vertex 34.3528 14.9702 2
      vertex 34.3528 14.9702 0
    endloop
  endfacet
  facet normal 0.522497 -0.852641 0
    outer loop
      vertex 34.5298 15.1472 0
      vertex 34.6368 15.2128 2
      vertex 34.5298 15.1472 2
    endloop
  endfacet
  facet normal 0.522497 -0.852641 0
    outer loop
      vertex 34.6368 15.2128 2
      vertex 34.5298 15.1472 0
      vertex 34.6368 15.2128 0
    endloop
  endfacet
  facet normal 0.923883 0.382675 0
    outer loop
      vertex 34.2872 14.1368 2
      vertex 34.2392 14.2528 0
      vertex 34.2392 14.2528 2
    endloop
  endfacet
  facet normal 0.923883 0.382675 0
    outer loop
      vertex 34.2392 14.2528 0
      vertex 34.2872 14.1368 2
      vertex 34.2872 14.1368 0
    endloop
  endfacet
  facet normal -0.852634 -0.522508 0
    outer loop
      vertex 35.7128 14.8632 0
      vertex 35.6472 14.9702 2
      vertex 35.6472 14.9702 0
    endloop
  endfacet
  facet normal -0.852634 -0.522508 0
    outer loop
      vertex 35.6472 14.9702 2
      vertex 35.7128 14.8632 0
      vertex 35.7128 14.8632 2
    endloop
  endfacet
  facet normal -0.972372 -0.233437 0
    outer loop
      vertex 35.7901 14.6251 0
      vertex 35.7608 14.7472 2
      vertex 35.7608 14.7472 0
    endloop
  endfacet
  facet normal -0.972372 -0.233437 0
    outer loop
      vertex 35.7608 14.7472 2
      vertex 35.7901 14.6251 0
      vertex 35.7901 14.6251 2
    endloop
  endfacet
  facet normal -0.760407 -0.649447 0
    outer loop
      vertex 35.6472 14.9702 0
      vertex 35.5657 15.0657 2
      vertex 35.5657 15.0657 0
    endloop
  endfacet
  facet normal -0.760407 -0.649447 0
    outer loop
      vertex 35.5657 15.0657 2
      vertex 35.6472 14.9702 0
      vertex 35.6472 14.9702 2
    endloop
  endfacet
  facet normal -0.382698 -0.923873 0
    outer loop
      vertex 35.2472 15.2608 0
      vertex 35.3632 15.2128 2
      vertex 35.2472 15.2608 2
    endloop
  endfacet
  facet normal -0.382698 -0.923873 -0
    outer loop
      vertex 35.3632 15.2128 2
      vertex 35.2472 15.2608 0
      vertex 35.3632 15.2128 0
    endloop
  endfacet
  facet normal -0.233438 -0.972372 0
    outer loop
      vertex 35.1251 15.2902 0
      vertex 35.2472 15.2608 2
      vertex 35.1251 15.2902 2
    endloop
  endfacet
  facet normal -0.233438 -0.972372 -0
    outer loop
      vertex 35.2472 15.2608 2
      vertex 35.1251 15.2902 0
      vertex 35.2472 15.2608 0
    endloop
  endfacet
  facet normal -0.522483 -0.85265 0
    outer loop
      vertex 35.3632 15.2128 0
      vertex 35.4702 15.1472 2
      vertex 35.3632 15.2128 2
    endloop
  endfacet
  facet normal -0.522483 -0.85265 -0
    outer loop
      vertex 35.4702 15.1472 2
      vertex 35.3632 15.2128 0
      vertex 35.4702 15.1472 0
    endloop
  endfacet
  facet normal 0.923883 -0.382675 0
    outer loop
      vertex 34.2392 14.7472 2
      vertex 34.2872 14.8632 0
      vertex 34.2872 14.8632 2
    endloop
  endfacet
  facet normal 0.923883 -0.382675 0
    outer loop
      vertex 34.2872 14.8632 0
      vertex 34.2392 14.7472 2
      vertex 34.2392 14.7472 0
    endloop
  endfacet
  facet normal 0.852634 -0.522508 0
    outer loop
      vertex 34.2872 14.8632 2
      vertex 34.3528 14.9702 0
      vertex 34.3528 14.9702 2
    endloop
  endfacet
  facet normal 0.852634 -0.522508 0
    outer loop
      vertex 34.3528 14.9702 0
      vertex 34.2872 14.8632 2
      vertex 34.2872 14.8632 0
    endloop
  endfacet
  facet normal 0.972365 -0.233466 0
    outer loop
      vertex 34.2098 14.6251 2
      vertex 34.2392 14.7472 0
      vertex 34.2392 14.7472 2
    endloop
  endfacet
  facet normal 0.972365 -0.233466 0
    outer loop
      vertex 34.2392 14.7472 0
      vertex 34.2098 14.6251 2
      vertex 34.2098 14.6251 0
    endloop
  endfacet
  facet normal 0.649454 -0.760401 0
    outer loop
      vertex 34.4343 15.0657 0
      vertex 34.5298 15.1472 2
      vertex 34.4343 15.0657 2
    endloop
  endfacet
  facet normal 0.649454 -0.760401 0
    outer loop
      vertex 34.5298 15.1472 2
      vertex 34.4343 15.0657 0
      vertex 34.5298 15.1472 0
    endloop
  endfacet
  facet normal 0.233444 -0.97237 0
    outer loop
      vertex 34.7528 15.2608 0
      vertex 34.8749 15.2902 2
      vertex 34.7528 15.2608 2
    endloop
  endfacet
  facet normal 0.233444 -0.97237 0
    outer loop
      vertex 34.8749 15.2902 2
      vertex 34.7528 15.2608 0
      vertex 34.8749 15.2902 0
    endloop
  endfacet
  facet normal -0.382698 0.923873 0
    outer loop
      vertex 35.3632 13.7872 0
      vertex 35.2472 13.7392 2
      vertex 35.3632 13.7872 2
    endloop
  endfacet
  facet normal -0.382698 0.923873 0
    outer loop
      vertex 35.2472 13.7392 2
      vertex 35.3632 13.7872 0
      vertex 35.2472 13.7392 0
    endloop
  endfacet
  facet normal -0.233438 0.972372 0
    outer loop
      vertex 35.2472 13.7392 0
      vertex 35.1251 13.7098 2
      vertex 35.2472 13.7392 2
    endloop
  endfacet
  facet normal -0.233438 0.972372 0
    outer loop
      vertex 35.1251 13.7098 2
      vertex 35.2472 13.7392 0
      vertex 35.1251 13.7098 0
    endloop
  endfacet
  facet normal -0.649454 0.760401 0
    outer loop
      vertex 35.5657 13.9343 0
      vertex 35.4702 13.8528 2
      vertex 35.5657 13.9343 2
    endloop
  endfacet
  facet normal -0.649454 0.760401 0
    outer loop
      vertex 35.4702 13.8528 2
      vertex 35.5657 13.9343 0
      vertex 35.4702 13.8528 0
    endloop
  endfacet
  facet normal -0.852634 0.522508 0
    outer loop
      vertex 35.6472 14.0298 0
      vertex 35.7128 14.1368 2
      vertex 35.7128 14.1368 0
    endloop
  endfacet
  facet normal -0.852634 0.522508 0
    outer loop
      vertex 35.7128 14.1368 2
      vertex 35.6472 14.0298 0
      vertex 35.6472 14.0298 2
    endloop
  endfacet
  facet normal -0.972372 0.233437 0
    outer loop
      vertex 35.7608 14.2528 0
      vertex 35.7901 14.3749 2
      vertex 35.7901 14.3749 0
    endloop
  endfacet
  facet normal -0.972372 0.233437 0
    outer loop
      vertex 35.7901 14.3749 2
      vertex 35.7608 14.2528 0
      vertex 35.7608 14.2528 2
    endloop
  endfacet
  facet normal 0.382688 0.923878 -0
    outer loop
      vertex 34.7528 13.7392 0
      vertex 34.6368 13.7872 2
      vertex 34.7528 13.7392 2
    endloop
  endfacet
  facet normal 0.382688 0.923878 0
    outer loop
      vertex 34.6368 13.7872 2
      vertex 34.7528 13.7392 0
      vertex 34.6368 13.7872 0
    endloop
  endfacet
  facet normal 0.522497 0.852641 -0
    outer loop
      vertex 34.6368 13.7872 0
      vertex 34.5298 13.8528 2
      vertex 34.6368 13.7872 2
    endloop
  endfacet
  facet normal 0.522497 0.852641 0
    outer loop
      vertex 34.5298 13.8528 2
      vertex 34.6368 13.7872 0
      vertex 34.5298 13.8528 0
    endloop
  endfacet
  facet normal 0.233444 0.97237 -0
    outer loop
      vertex 34.8749 13.7098 0
      vertex 34.7528 13.7392 2
      vertex 34.8749 13.7098 2
    endloop
  endfacet
  facet normal 0.233444 0.97237 0
    outer loop
      vertex 34.7528 13.7392 2
      vertex 34.8749 13.7098 0
      vertex 34.7528 13.7392 0
    endloop
  endfacet
  facet normal 0.760407 0.649447 0
    outer loop
      vertex 34.4343 13.9343 2
      vertex 34.3528 14.0298 0
      vertex 34.3528 14.0298 2
    endloop
  endfacet
  facet normal 0.760407 0.649447 0
    outer loop
      vertex 34.3528 14.0298 0
      vertex 34.4343 13.9343 2
      vertex 34.4343 13.9343 0
    endloop
  endfacet
  facet normal 0.649454 0.760401 -0
    outer loop
      vertex 34.5298 13.8528 0
      vertex 34.4343 13.9343 2
      vertex 34.5298 13.8528 2
    endloop
  endfacet
  facet normal 0.649454 0.760401 0
    outer loop
      vertex 34.4343 13.9343 2
      vertex 34.5298 13.8528 0
      vertex 34.4343 13.9343 0
    endloop
  endfacet
  facet normal 0.972365 0.233466 0
    outer loop
      vertex 34.2392 14.2528 2
      vertex 34.2098 14.3749 0
      vertex 34.2098 14.3749 2
    endloop
  endfacet
  facet normal 0.972365 0.233466 0
    outer loop
      vertex 34.2098 14.3749 0
      vertex 34.2392 14.2528 2
      vertex 34.2392 14.2528 0
    endloop
  endfacet
  facet normal -0.923883 -0.382675 0
    outer loop
      vertex 35.7608 14.7472 0
      vertex 35.7128 14.8632 2
      vertex 35.7128 14.8632 0
    endloop
  endfacet
  facet normal -0.923883 -0.382675 0
    outer loop
      vertex 35.7128 14.8632 2
      vertex 35.7608 14.7472 0
      vertex 35.7608 14.7472 2
    endloop
  endfacet
  facet normal -0.0784549 -0.996918 0
    outer loop
      vertex 35 15.3 0
      vertex 35.1251 15.2902 2
      vertex 35 15.3 2
    endloop
  endfacet
  facet normal -0.0784549 -0.996918 -0
    outer loop
      vertex 35.1251 15.2902 2
      vertex 35 15.3 0
      vertex 35.1251 15.2902 0
    endloop
  endfacet
  facet normal 0.99692 -0.0784311 0
    outer loop
      vertex 34.2 14.5 2
      vertex 34.2098 14.6251 0
      vertex 34.2098 14.6251 2
    endloop
  endfacet
  facet normal 0.99692 -0.0784311 0
    outer loop
      vertex 34.2098 14.6251 0
      vertex 34.2 14.5 2
      vertex 34.2 14.5 0
    endloop
  endfacet
  facet normal 0.382688 -0.923878 0
    outer loop
      vertex 34.6368 15.2128 0
      vertex 34.7528 15.2608 2
      vertex 34.6368 15.2128 2
    endloop
  endfacet
  facet normal 0.382688 -0.923878 0
    outer loop
      vertex 34.7528 15.2608 2
      vertex 34.6368 15.2128 0
      vertex 34.7528 15.2608 0
    endloop
  endfacet
  facet normal -0.760407 0.649447 0
    outer loop
      vertex 35.5657 13.9343 0
      vertex 35.6472 14.0298 2
      vertex 35.6472 14.0298 0
    endloop
  endfacet
  facet normal -0.760407 0.649447 0
    outer loop
      vertex 35.6472 14.0298 2
      vertex 35.5657 13.9343 0
      vertex 35.5657 13.9343 2
    endloop
  endfacet
  facet normal -0.923883 0.382675 0
    outer loop
      vertex 35.7128 14.1368 0
      vertex 35.7608 14.2528 2
      vertex 35.7608 14.2528 0
    endloop
  endfacet
  facet normal -0.923883 0.382675 0
    outer loop
      vertex 35.7608 14.2528 2
      vertex 35.7128 14.1368 0
      vertex 35.7128 14.1368 2
    endloop
  endfacet
  facet normal -0.996917 0.0784607 0
    outer loop
      vertex 35.7901 14.3749 0
      vertex 35.8 14.5 2
      vertex 35.8 14.5 0
    endloop
  endfacet
  facet normal -0.996917 0.0784607 0
    outer loop
      vertex 35.8 14.5 2
      vertex 35.7901 14.3749 0
      vertex 35.7901 14.3749 2
    endloop
  endfacet
  facet normal 0.0784525 0.996918 -0
    outer loop
      vertex 35 13.7 0
      vertex 34.8749 13.7098 2
      vertex 35 13.7 2
    endloop
  endfacet
  facet normal 0.0784525 0.996918 0
    outer loop
      vertex 34.8749 13.7098 2
      vertex 35 13.7 0
      vertex 34.8749 13.7098 0
    endloop
  endfacet
  facet normal -0.522483 0.85265 0
    outer loop
      vertex 35.4702 13.8528 0
      vertex 35.3632 13.7872 2
      vertex 35.4702 13.8528 2
    endloop
  endfacet
  facet normal -0.522483 0.85265 0
    outer loop
      vertex 35.3632 13.7872 2
      vertex 35.4702 13.8528 0
      vertex 35.3632 13.7872 0
    endloop
  endfacet
  facet normal -0.0784549 0.996918 0
    outer loop
      vertex 35.1251 13.7098 0
      vertex 35 13.7 2
      vertex 35.1251 13.7098 2
    endloop
  endfacet
  facet normal -0.0784549 0.996918 0
    outer loop
      vertex 35 13.7 2
      vertex 35.1251 13.7098 0
      vertex 35 13.7 0
    endloop
  endfacet
  facet normal 0.852634 0.522508 0
    outer loop
      vertex 34.3528 14.0298 2
      vertex 34.2872 14.1368 0
      vertex 34.2872 14.1368 2
    endloop
  endfacet
  facet normal 0.852634 0.522508 0
    outer loop
      vertex 34.2872 14.1368 0
      vertex 34.3528 14.0298 2
      vertex 34.3528 14.0298 0
    endloop
  endfacet
  facet normal 1 -0 0
    outer loop
      vertex 1 6.5 2
      vertex 1 9.7 0
      vertex 1 9.7 2
    endloop
  endfacet
  facet normal 1 0 0
    outer loop
      vertex 1 9.7 0
      vertex 1 6.5 2
      vertex 1 6.5 0
    endloop
  endfacet
  facet normal -1 0 0
    outer loop
      vertex 2.8 6.5 0
      vertex 2.8 9.7 2
      vertex 2.8 9.7 0
    endloop
  endfacet
  facet normal -1 -0 0
    outer loop
      vertex 2.8 9.7 2
      vertex 2.8 6.5 0
      vertex 2.8 6.5 2
    endloop
  endfacet
  facet normal 0 -1 0
    outer loop
      vertex 1 9.7 0
      vertex 2.8 9.7 2
      vertex 1 9.7 2
    endloop
  endfacet
  facet normal 0 -1 -0
    outer loop
      vertex 2.8 9.7 2
      vertex 1 9.7 0
      vertex 2.8 9.7 0
    endloop
  endfacet
  facet normal 0 1 -0
    outer loop
      vertex 2.8 6.5 0
      vertex 1 6.5 2
      vertex 2.8 6.5 2
    endloop
  endfacet
  facet normal 0 1 0
    outer loop
      vertex 1 6.5 2
      vertex 2.8 6.5 0
      vertex 1 6.5 0
    endloop
  endfacet
  facet normal 1 -0 0
    outer loop
      vertex 4 6.5 2
      vertex 4 9.7 0
      vertex 4 9.7 2
    endloop
  endfacet
  facet normal 1 0 0
    outer loop
      vertex 4 9.7 0
      vertex 4 6.5 2
      vertex 4 6.5 0
    endloop
  endfacet
  facet normal -1 0 0
    outer loop
      vertex 5.8 6.5 0
      vertex 5.8 9.7 2
      vertex 5.8 9.7 0
    endloop
  endfacet
  facet normal -1 -0 0
    outer loop
      vertex 5.8 9.7 2
      vertex 5.8 6.5 0
      vertex 5.8 6.5 2
    endloop
  endfacet
  facet normal 0 -1 0
    outer loop
      vertex 4 9.7 0
      vertex 5.8 9.7 2
      vertex 4 9.7 2
    endloop
  endfacet
  facet normal 0 -1 -0
    outer loop
      vertex 5.8 9.7 2
      vertex 4 9.7 0
      vertex 5.8 9.7 0
    endloop
  endfacet
  facet normal 0 1 -0
    outer loop
      vertex 5.8 6.5 0
      vertex 4 6.5 2
      vertex 5.8 6.5 2
    endloop
  endfacet
  facet normal 0 1 0
    outer loop
      vertex 4 6.5 2
      vertex 5.8 6.5 0
      vertex 4 6.5 0
    endloop
  endfacet
  facet normal 1 -0 0
    outer loop
      vertex 7 6.5 2
      vertex 7 9.7 0
      vertex 7 9.7 2
    endloop
  endfacet
  facet normal 1 0 0
    outer loop
      vertex 7 9.7 0
      vertex 7 6.5 2
      vertex 7 6.5 0
    endloop
  endfacet
  facet normal -1 0 0
    outer loop
      vertex 8.8 6.5 0
      vertex 8.8 9.7 2
      vertex 8.8 9.7 0
    endloop
  endfacet
  facet normal -1 -0 0
    outer loop
      vertex 8.8 9.7 2
      vertex 8.8 6.5 0
      vertex 8.8 6.5 2
    endloop
  endfacet
  facet normal 0 -1 0
    outer loop
      vertex 7 9.7 0
      vertex 8.8 9.7 2
      vertex 7 9.7 2
    endloop
  endfacet
  facet normal 0 -1 -0
    outer loop
      vertex 8.8 9.7 2
      vertex 7 9.7 0
      vertex 8.8 9.7 0
    endloop
  endfacet
  facet normal 0 1 -0
    outer loop
      vertex 8.8 6.5 0
      vertex 7 6.5 2
      vertex 8.8 6.5 2
    endloop
  endfacet
  facet normal 0 1 0
    outer loop
      vertex 7 6.5 2
      vertex 8.8 6.5 0
      vertex 7 6.5 0
    endloop
  endfacet
endsolid OpenSCAD_Model
