<?xml version="1.0" encoding="UTF-8" standalone="no"?>
<svg
   width="108mm"
   height="83mm"
   viewBox="-3 -80 108 83"
   version="1.1"
   id="svg186"
   sodipodi:docname="dimmerbox.svg"
   inkscape:version="1.2.2 (b0a8486, 2022-12-01)"
   xmlns:inkscape="http://www.inkscape.org/namespaces/inkscape"
   xmlns:sodipodi="http://sodipodi.sourceforge.net/DTD/sodipodi-0.dtd"
   xmlns="http://www.w3.org/2000/svg"
   xmlns:svg="http://www.w3.org/2000/svg">
  <defs
     id="defs190" />
  <sodipodi:namedview
     id="namedview188"
     pagecolor="#ffffff"
     bordercolor="#666666"
     borderopacity="1.0"
     inkscape:showpageshadow="2"
     inkscape:pageopacity="0.0"
     inkscape:pagecheckerboard="0"
     inkscape:deskcolor="#d1d1d1"
     inkscape:document-units="mm"
     showgrid="false"
     inkscape:zoom="3.009237"
     inkscape:cx="77.926731"
     inkscape:cy="37.717203"
     inkscape:window-width="1280"
     inkscape:window-height="707"
     inkscape:window-x="0"
     inkscape:window-y="25"
     inkscape:window-maximized="0"
     inkscape:current-layer="svg186" />
  <title
     id="title182">OpenSCAD Model</title>
  <path
     style="fill:none;stroke:#ff0000;stroke-opacity:1;stroke-width:0.05;stroke-dasharray:none"
     d="M 101.804,1.2346 101.614,1.18881 101.433,1.11375 101.265,1.01126 101.116,0.883881 100.989,0.734726 100.886,0.567474 100.811,0.386261 100.765,0.195541 100.75,0 l 0.015,-0.195541 0.046,-0.19072 0.075,-0.181213 0.103,-0.167252 0.127,-0.149155 0.149,-0.127379 0.168,-0.10249 0.181,-0.07506 0.19,-0.04579 0.196,-0.0154 0.196,0.0154 0.19,0.04579 0.181,0.07506 0.168,0.10249 0.149,0.127379 0.127,0.149155 0.103,0.167252 0.075,0.181213 0.046,0.19072 L 103.25,0 l -0.015,0.195541 -0.046,0.19072 -0.075,0.181213 -0.103,0.167252 -0.127,0.149155 -0.149,0.127379 -0.168,0.10249 -0.181,0.07506 -0.19,0.04579 L 102,1.25 Z"
     id="path420" />
  <path
     style="fill:none;stroke:#ff0000;stroke-opacity:1;stroke-width:0.05;stroke-dasharray:none"
     d="M -0.195541,1.2346 -0.386261,1.18881 -0.567474,1.11375 -0.734726,1.01126 -0.883881,0.883881 -1.01126,0.734726 -1.11375,0.567474 -1.18881,0.386261 -1.2346,0.195541 -1.25,0 l 0.0154,-0.195541 0.04579,-0.19072 0.07506,-0.181213 0.10249,-0.167252 0.127379,-0.149155 0.149155,-0.127379 0.167252,-0.10249 0.181213,-0.07506 0.19072,-0.04579 L 0,-1.25 l 0.195541,0.0154 0.19072,0.04579 0.181213,0.07506 0.167252,0.10249 0.149155,0.127379 0.127379,0.149155 0.10249,0.167252 0.07506,0.181213 0.04579,0.19072 L 1.25,0 1.2346,0.195541 1.18881,0.386261 1.11375,0.567474 1.01126,0.734726 0.883881,0.883881 0.734726,1.01126 0.567474,1.11375 0.386261,1.18881 0.195541,1.2346 0,1.25 Z"
     id="path418" />
  <path
     style="fill:none;stroke:#ff0000;stroke-opacity:1;stroke-width:0.05;stroke-dasharray:none"
     d="m 101.804,-75.7654 -0.19,-0.0458 -0.181,-0.075 -0.168,-0.1025 -0.149,-0.1274 -0.127,-0.1492 -0.103,-0.1672 -0.075,-0.1812 -0.046,-0.1908 -0.015,-0.1955 0.015,-0.1955 0.046,-0.1908 0.075,-0.1812 0.103,-0.1672 0.127,-0.1492 0.149,-0.1274 0.168,-0.1025 0.181,-0.075 0.19,-0.0458 0.196,-0.0154 0.196,0.0154 0.19,0.0458 0.181,0.075 0.168,0.1025 0.149,0.1274 0.127,0.1492 0.103,0.1672 0.075,0.1812 0.046,0.1908 0.015,0.1955 -0.015,0.1955 -0.046,0.1908 -0.075,0.1812 -0.103,0.1672 -0.127,0.1492 -0.149,0.1274 -0.168,0.1025 -0.181,0.075 -0.19,0.0458 L 102,-75.75 Z"
     id="path416" />
  <path
     style="fill:none;stroke:#ff0000;stroke-opacity:1;stroke-width:0.05;stroke-dasharray:none"
     d="m -0.195541,-75.7654 -0.19072,-0.0458 -0.181213,-0.075 -0.167252,-0.1025 -0.149155,-0.1274 -0.127379,-0.1492 -0.10249,-0.1672 -0.07506,-0.1812 L -1.2346,-76.8045 -1.25,-77 l 0.0154,-0.1955 0.04579,-0.1908 0.07506,-0.1812 0.10249,-0.1672 0.127379,-0.1492 0.149155,-0.1274 0.167252,-0.1025 0.181213,-0.075 0.19072,-0.0458 L 0,-78.25 l 0.195541,0.0154 0.19072,0.0458 0.181213,0.075 0.167252,0.1025 0.149155,0.1274 0.127379,0.1492 0.10249,0.1672 0.07506,0.1812 0.04579,0.1908 L 1.25,-77 l -0.0154,0.1955 -0.04579,0.1908 -0.07506,0.1812 -0.10249,0.1672 -0.127379,0.1492 -0.149155,0.1274 -0.167252,0.1025 -0.181213,0.075 -0.19072,0.0458 L 0,-75.75 Z"
     id="path414" />
  <path
     style="fill:none;stroke:#ff0000;stroke-opacity:1;stroke-width:0.05;stroke-dasharray:none"
     d="m 102.391,2.46921 0.382,-0.09157 0.362,-0.15013 0.334,-0.20497 0.299,-0.25478 0.255,-0.29831 0.205,-0.33449 0.15,-0.362423 0.091,-0.381454 L 104.5,0 v -77 l -0.031,-0.3911 -0.091,-0.3814 -0.15,-0.3625 -0.205,-0.3345 -0.255,-0.2983 -0.299,-0.2547 -0.334,-0.205 -0.362,-0.1501 -0.382,-0.0916 L 102,-79.5 H 0 l -0.391083,0.0308 -0.381454,0.0916 -0.362423,0.1501 -0.33449,0.205 -0.29831,0.2547 -0.25478,0.2983 -0.20497,0.3345 -0.15013,0.3625 -0.09157,0.3814 L -2.5,-77 V 0 l 0.03079,0.391083 0.09157,0.381454 0.15013,0.362423 0.20497,0.33449 0.25478,0.29831 0.29831,0.25478 0.33449,0.20497 0.362423,0.15013 0.381454,0.09157 L 0,2.5 h 102 z"
     id="path184" />
</svg>
